<svg xmlns="http://www.w3.org/2000/svg" width="635" height="456" viewBox="0 0 635 456">
    <g fill="#FFF" fill-rule="evenodd">
        <path d="M583.869 432.421c-.76 0-1.523.03-2.28-.014-.318-.018-.743-.093-.921-.306-1.176-1.407-2.291-2.86-2.661-4.722-.593-2.982 1.46-6.047 4.453-6.649 3.182-.64 6.287 1.326 6.946 4.372.358 1.65-.05 3.157-.81 4.598-.39.738-.86 1.433-1.26 2.165-.216.395-.518.559-.95.555-.84-.005-1.678-.001-2.517-.001v.002zM583.81 434.145c-.787 0-1.573.003-2.36-.002-.336-.001-.67-.065-.666-.484.004-.407.338-.5.669-.5 1.625-.008 3.251-.01 4.877.004.327.003.643.098.616.536-.024.394-.32.44-.618.442-.84.009-1.679.003-2.518.004M583.819 435.923h-1.887c-.344-.001-.662-.093-.673-.491-.01-.415.328-.495.66-.497 1.285-.008 2.57-.008 3.853-.002.358.002.722.05.697.53-.022.422-.35.462-.684.461h-1.966M583.858 436.865c.26 0 .522-.007.783.002.72.022.915.316.671 1a1.621 1.621 0 0 1-1.578 1.056c-.705-.039-1.318-.546-1.457-1.205-.126-.602.038-.825.642-.85.312-.013.626-.002.939-.003M584.17 416.889c0 .443.05.894-.021 1.326-.031.189-.305.338-.468.505-.164-.163-.46-.32-.469-.49a28.491 28.491 0 0 1-.003-2.736c.007-.161.301-.457.41-.435.203.041.495.25.523.426.073.457.025.934.025 1.404h.004zM593.25 426.92c-.416 0-.84.047-1.245-.02-.201-.035-.366-.282-.546-.432.18-.18.351-.502.542-.514a21.04 21.04 0 0 1 2.65-.001c.192.012.364.336.545.516-.18.15-.346.402-.544.43-.46.064-.933.02-1.402.02M574.1 427.001c-.442 0-.895.055-1.323-.023-.21-.039-.375-.324-.56-.497.172-.157.34-.441.52-.45a26.243 26.243 0 0 1 2.73.008c.171.01.327.313.49.48-.176.16-.335.426-.532.457-.43.07-.882.022-1.324.022v.003zM578.365 420.684c-.015.324-.588.561-.88.298a32.122 32.122 0 0 1-1.985-1.99c-.09-.097-.063-.42.034-.54.1-.123.451-.23.521-.164.775.73 1.517 1.492 2.264 2.25.032.032.032.096.046.146M589.55 421.13c-.36.022-.64-.499-.369-.805.637-.719 1.334-1.386 2.038-2.04.096-.089.468-.05.549.056.115.148.185.511.09.612-.672.722-1.39 1.402-2.099 2.09-.052.05-.142.06-.208.086"/>
        <g opacity=".85">
            <path d="M488.41 395.03c-.925 0-1.853.035-2.776-.017-.387-.022-.904-.113-1.12-.37-1.432-1.7-2.79-3.456-3.24-5.706-.722-3.603 1.776-7.306 5.42-8.033 3.874-.773 7.654 1.602 8.457 5.282.436 1.995-.062 3.815-.986 5.556-.474.892-1.047 1.731-1.535 2.616-.262.477-.629.675-1.155.671-1.022-.007-2.043-.002-3.065-.002v.003zM488.339 397.113c-.958 0-1.916.003-2.874-.002-.408-.002-.815-.079-.81-.585.005-.492.41-.603.814-.605 1.979-.01 3.958-.012 5.937.005.398.004.783.12.75.648-.029.476-.389.531-.753.535-1.021.01-2.043.003-3.064.004M488.35 399.262l-2.298-.001c-.419 0-.806-.112-.819-.593-.012-.501.4-.598.805-.6 1.563-.01 3.126-.01 4.69-.003.435.002.877.06.848.641-.027.51-.425.558-.833.557-.798-.002-1.596 0-2.394-.001M488.397 400.4c.318 0 .636-.008.953.002.876.026 1.114.382.818 1.208a1.974 1.974 0 0 1-1.922 1.276c-.858-.046-1.605-.66-1.773-1.456-.154-.727.046-.997.78-1.027.38-.015.763-.002 1.144-.003M488.778 376.262c0 .535.059 1.08-.027 1.602-.038.228-.37.409-.57.61-.199-.196-.56-.385-.57-.592a34.17 34.17 0 0 1-.004-3.305c.009-.195.366-.553.5-.526.246.05.601.303.635.514.09.553.03 1.13.03 1.697h.006zM499.831 388.382c-.507 0-1.023.058-1.516-.024-.245-.041-.445-.34-.665-.521.22-.217.428-.607.66-.622a25.805 25.805 0 0 1 3.227 0c.233.014.442.405.663.623-.22.182-.422.486-.662.52-.56.077-1.137.024-1.707.024M476.519 388.481c-.54 0-1.09.066-1.612-.028-.256-.047-.457-.391-.682-.6.21-.19.413-.534.633-.544a32.187 32.187 0 0 1 3.323.009c.21.011.399.378.597.581-.214.193-.407.514-.647.552-.525.085-1.073.026-1.612.026v.004zM481.71 380.848c-.018.391-.716.678-1.07.36a38.96 38.96 0 0 1-2.418-2.404c-.11-.118-.076-.508.042-.653.122-.148.549-.278.634-.198.943.88 1.846 1.803 2.756 2.718.04.04.039.117.056.177M495.328 381.386c-.439.027-.78-.602-.45-.972.775-.868 1.623-1.675 2.48-2.466.117-.106.57-.059.668.068.14.18.226.618.11.74-.818.873-1.692 1.694-2.555 2.526-.063.06-.173.073-.253.104"/>
        </g>
        <g opacity=".7">
            <path d="M521.454 352.769c-1.025 0-2.052.039-3.074-.019-.428-.024-1-.124-1.24-.409-1.585-1.874-3.089-3.813-3.588-6.296-.798-3.976 1.968-8.062 6.002-8.864 4.289-.853 8.474 1.768 9.363 5.828.482 2.202-.069 4.21-1.092 6.132-.524.984-1.16 1.91-1.699 2.887-.29.526-.697.744-1.28.74-1.13-.008-2.261-.003-3.392-.003v.004zM521.374 355.067c-1.06 0-2.12.004-3.18-.002-.453-.002-.903-.087-.898-.646.005-.543.455-.665.901-.667 2.191-.01 4.383-.013 6.574.006.44.004.866.13.83.714-.032.525-.43.586-.834.59-1.13.011-2.262.004-3.393.005M521.386 357.438h-2.543c-.464-.002-.893-.124-.907-.655-.014-.553.442-.66.89-.662 1.732-.01 3.462-.01 5.193-.003.482.002.972.067.94.707-.03.563-.471.615-.923.614-.883-.002-1.767 0-2.65 0M521.439 358.694c.352 0 .704-.009 1.055.002.97.03 1.234.422.905 1.333-.31.863-1.209 1.458-2.127 1.408-.95-.05-1.777-.727-1.964-1.606-.17-.802.051-1.1.865-1.133.421-.017.844-.003 1.266-.004M521.86 332.059c0 .59.066 1.192-.03 1.768-.04.252-.41.45-.63.674-.22-.218-.62-.426-.631-.654a37.58 37.58 0 0 1-.005-3.647c.01-.216.406-.61.553-.58.273.054.667.333.704.567.1.61.034 1.246.034 1.872h.006zM534.098 345.433c-.561 0-1.133.064-1.678-.027-.271-.045-.493-.374-.737-.575.243-.24.474-.67.732-.686a28.665 28.665 0 0 1 3.571 0c.259.015.49.448.734.688-.243.2-.466.536-.732.573-.62.085-1.259.027-1.89.027M508.288 345.542c-.597 0-1.207.073-1.784-.031-.284-.051-.506-.431-.756-.663.233-.209.458-.588.701-.6a35.755 35.755 0 0 1 3.68.01c.231.013.441.418.66.642-.237.213-.45.567-.716.61-.58.093-1.188.028-1.785.028v.004zM514.035 337.119c-.02.432-.792.748-1.184.397-.937-.837-1.818-1.737-2.677-2.652-.122-.13-.084-.561.046-.72.135-.164.608-.307.702-.22 1.044.973 2.044 1.99 3.052 3 .043.044.042.13.061.195M529.112 337.713c-.485.03-.863-.664-.498-1.072.858-.958 1.797-1.849 2.747-2.721.128-.118.63-.065.74.075.155.198.249.682.121.817-.906.962-1.874 1.869-2.83 2.786-.069.067-.191.08-.28.115"/>
        </g>
        <g opacity=".85">
            <path d="M470.632 232.21c-1.091 0-2.185.042-3.272-.02-.456-.025-1.065-.132-1.321-.434-1.687-1.992-3.288-4.051-3.819-6.689-.85-4.225 2.095-8.566 6.39-9.419 4.565-.906 9.02 1.879 9.966 6.193.514 2.34-.073 4.473-1.162 6.515-.558 1.045-1.234 2.03-1.809 3.067-.31.56-.742.79-1.362.786-1.204-.008-2.408-.002-3.611-.002v.003zM470.547 234.652c-1.129 0-2.257.004-3.386-.002-.482-.002-.96-.092-.955-.686.005-.577.484-.707.959-.71 2.332-.01 4.665-.013 6.998.007.468.004.922.14.884.76-.035.557-.459.622-.888.626-1.204.012-2.408.004-3.612.005M470.56 237.172l-2.708-.001c-.494-.001-.95-.131-.965-.695-.015-.588.47-.701.948-.704 1.843-.011 3.685-.011 5.528-.003.512.002 1.034.07 1 .751-.032.598-.502.654-.983.653-.94-.002-1.88 0-2.82-.001M470.616 238.507c.374 0 .749-.01 1.123.001 1.032.031 1.313.449.964 1.416-.331.917-1.288 1.55-2.265 1.497-1.011-.054-1.891-.773-2.09-1.707-.181-.852.054-1.169.92-1.204.449-.018.899-.003 1.348-.003M471.065 210.206c0 .628.069 1.267-.032 1.879-.044.267-.437.479-.671.716-.235-.232-.66-.453-.672-.695a39.853 39.853 0 0 1-.005-3.875c.01-.229.432-.648.589-.617.29.058.709.355.75.603.105.648.035 1.324.035 1.99h.006zM484.092 224.416c-.598 0-1.206.068-1.787-.029-.288-.048-.524-.397-.784-.61.259-.255.505-.712.779-.73 1.264-.078 2.538-.079 3.802 0 .275.017.521.476.781.732-.258.212-.496.569-.78.608-.659.091-1.34.03-2.011.03M456.616 224.532c-.635 0-1.285.078-1.9-.033-.3-.054-.537-.458-.803-.704.248-.222.487-.625.746-.637a38.134 38.134 0 0 1 3.917.01c.247.014.47.444.703.682-.252.226-.48.602-.762.647-.619.1-1.265.03-1.9.03v.005zM462.735 215.583c-.021.458-.844.795-1.262.422-.996-.89-1.935-1.846-2.85-2.818-.128-.138-.089-.596.05-.765.144-.175.647-.327.748-.233 1.111 1.032 2.176 2.114 3.248 3.187.046.046.045.137.066.207M478.784 216.214c-.517.032-.919-.706-.53-1.14.913-1.018 1.913-1.964 2.924-2.89.137-.126.67-.07.787.079.165.21.266.725.13.868-.965 1.023-1.996 1.986-3.012 2.96-.074.072-.205.086-.299.123"/>
        </g>
        <path d="M522.24 81.178c-.893 0-1.788.034-2.677-.016-.373-.021-.872-.11-1.081-.358-1.38-1.64-2.69-3.336-3.124-5.509-.696-3.479 1.713-7.054 5.227-7.756 3.736-.747 7.38 1.546 8.155 5.1.42 1.926-.06 3.683-.951 5.365-.457.86-1.01 1.671-1.48 2.526-.253.46-.607.65-1.115.647-.985-.006-1.97-.002-2.954-.002v.003zM522.17 83.189c-.923 0-1.847.003-2.77-.002-.394-.002-.786-.076-.782-.565.005-.475.397-.582.785-.584a426.52 426.52 0 0 1 5.726.005c.383.004.754.115.723.626-.028.46-.375.512-.726.516-.985.01-1.97.003-2.955.004M522.18 85.264l-2.214-.001c-.404 0-.778-.108-.79-.572-.012-.484.385-.578.776-.58 1.507-.01 3.015-.009 4.522-.002.42.001.847.058.818.618-.026.493-.41.539-.803.538-.77-.002-1.539 0-2.308-.001M522.227 86.363c.306 0 .613-.008.919.001.844.026 1.074.37.788 1.167a1.903 1.903 0 0 1-1.853 1.232c-.827-.044-1.547-.637-1.71-1.406-.148-.701.045-.962.753-.991.367-.015.735-.003 1.103-.003M522.594 63.057c0 .517.057 1.043-.026 1.547-.036.22-.357.394-.55.59-.191-.19-.539-.373-.549-.573a33.035 33.035 0 0 1-.004-3.191c.008-.188.353-.533.482-.507.237.047.58.292.613.496.086.534.03 1.09.03 1.638h.004zM533.252 74.76c-.488 0-.986.055-1.461-.024-.236-.04-.43-.328-.642-.503.212-.21.413-.586.637-.6a24.852 24.852 0 0 1 3.111-.001c.225.014.427.392.64.602-.212.175-.407.47-.639.501-.539.075-1.096.024-1.646.024M510.773 74.855c-.52 0-1.052.064-1.555-.027-.246-.045-.44-.378-.658-.58.204-.183.4-.515.61-.525a30.998 30.998 0 0 1 3.206.009c.202.01.384.365.575.56-.206.187-.392.497-.623.534-.507.082-1.036.025-1.555.025v.004zM515.778 67.485c-.017.377-.69.654-1.031.347a37.593 37.593 0 0 1-2.332-2.32c-.106-.114-.073-.491.04-.63.118-.144.53-.27.612-.192.91.85 1.78 1.74 2.658 2.624.037.038.037.113.053.17M528.91 68.004c-.423.027-.752-.58-.434-.938.747-.838 1.565-1.618 2.393-2.38.111-.104.548-.058.643.065.136.173.218.597.107.715-.79.842-1.633 1.635-2.465 2.438-.06.059-.167.07-.244.1"/>
        <g opacity=".85">
            <path d="M372.485 314.745c-1.157 0-2.317.044-3.47-.022-.484-.028-1.13-.144-1.402-.473-1.789-2.167-3.486-4.409-4.05-7.28-.9-4.597 2.222-9.32 6.777-10.249 4.842-.986 9.567 2.044 10.571 6.74.545 2.545-.077 4.867-1.233 7.089-.592 1.138-1.309 2.209-1.918 3.338-.329.608-.787.86-1.445.856-1.277-.01-2.554-.003-3.83-.003v.004zM372.395 317.402c-1.197 0-2.394.004-3.591-.002-.511-.003-1.02-.1-1.013-.747.005-.628.513-.77 1.017-.772 2.474-.012 4.948-.015 7.422.007.497.005.978.152.937.826-.036.608-.486.678-.94.682-1.278.013-2.555.005-3.832.006M372.409 320.144c-.958-.001-1.915 0-2.872-.002-.524 0-1.008-.142-1.023-.756-.017-.64.498-.762 1.005-.766 1.954-.012 3.908-.011 5.862-.003.544.002 1.098.077 1.06.818-.033.65-.531.711-1.04.71-.998-.002-1.995 0-2.992-.001M372.468 321.596c.397 0 .794-.01 1.191.002 1.095.034 1.393.488 1.022 1.541-.35.998-1.365 1.686-2.401 1.629-1.073-.06-2.007-.842-2.217-1.858-.192-.927.057-1.272.976-1.31.475-.02.952-.003 1.429-.004M372.944 290.799c0 .683.074 1.379-.034 2.044-.047.291-.463.521-.712.78-.248-.252-.699-.493-.712-.757a44.498 44.498 0 0 1-.005-4.217c.01-.249.458-.705.624-.67.308.062.752.385.795.655.112.706.038 1.441.038 2.165h.006zM386.76 306.263c-.633 0-1.279.073-1.894-.032-.306-.052-.557-.432-.832-.664.275-.277.535-.775.826-.793a31.604 31.604 0 0 1 4.033-.002c.291.02.553.519.828.797-.274.231-.527.62-.827.662-.699.1-1.42.032-2.133.032M357.62 306.389c-.674 0-1.363.085-2.015-.036-.32-.06-.57-.499-.852-.766.263-.242.517-.68.79-.694a39.42 39.42 0 0 1 4.156.012c.261.015.498.483.746.741-.268.246-.51.656-.81.705-.655.108-1.341.033-2.015.033v.005zM364.11 296.65c-.023.499-.895.865-1.339.459-1.056-.968-2.052-2.008-3.022-3.067-.137-.15-.095-.648.053-.832.152-.19.686-.355.792-.254 1.179 1.124 2.308 2.3 3.445 3.469.05.05.049.148.07.225M381.131 297.337c-.548.034-.974-.768-.562-1.24.969-1.108 2.03-2.138 3.101-3.146.145-.137.711-.076.835.086.175.23.282.789.138.945-1.024 1.113-2.117 2.161-3.195 3.222-.079.077-.217.092-.317.133"/>
        </g>
        <g opacity=".7">
            <path d="M392.063 207.08c-.76 0-1.522.029-2.28-.015-.318-.018-.742-.093-.92-.306-1.176-1.406-2.292-2.86-2.662-4.722-.592-2.982 1.46-6.047 4.453-6.648 3.182-.64 6.287 1.325 6.947 4.37.358 1.652-.051 3.158-.81 4.6-.39.737-.86 1.432-1.261 2.165-.216.394-.517.558-.95.555-.839-.006-1.678-.002-2.517-.002v.002zM392.005 208.803c-.787 0-1.574.003-2.36-.001-.337-.002-.67-.066-.666-.485.003-.407.337-.499.668-.5 1.626-.008 3.252-.01 4.877.004.327.003.643.099.617.536-.024.394-.32.44-.62.443-.838.008-1.677.002-2.516.003M392.013 210.581h-1.887c-.344 0-.662-.093-.672-.49-.01-.416.328-.496.66-.498 1.284-.007 2.569-.007 3.853-.002.357.002.72.05.696.53-.021.423-.349.462-.684.461h-1.966M392.052 211.524c.261 0 .522-.007.783 0 .72.023.916.318.672 1a1.621 1.621 0 0 1-1.578 1.057c-.705-.038-1.319-.546-1.457-1.205-.127-.601.037-.825.641-.85.313-.013.626-.002.94-.002M392.365 191.547c0 .443.049.894-.022 1.326-.03.189-.304.338-.468.505-.163-.163-.46-.319-.468-.49a28.491 28.491 0 0 1-.003-2.735c.007-.162.3-.458.41-.435.202.04.494.25.522.425.074.458.025.935.025 1.404h.004zM401.445 201.578c-.417 0-.841.047-1.246-.02-.2-.035-.365-.281-.546-.432.18-.18.352-.502.543-.514a21.04 21.04 0 0 1 2.65-.001c.191.012.363.336.544.517-.18.15-.346.401-.544.429-.459.064-.933.02-1.401.02M382.295 201.66c-.443 0-.895.054-1.324-.024-.21-.038-.375-.323-.56-.497.173-.157.34-.44.52-.45a26.243 26.243 0 0 1 2.73.008c.172.01.327.313.49.48-.176.16-.334.426-.531.458-.431.07-.882.021-1.325.021v.004zM386.56 195.342c-.015.324-.588.561-.88.298a32.122 32.122 0 0 1-1.986-1.99c-.09-.096-.062-.42.035-.54.1-.122.45-.23.52-.163.775.728 1.517 1.492 2.265 2.25.032.032.031.096.045.145M397.745 195.788c-.36.022-.64-.498-.37-.804.637-.72 1.334-1.387 2.039-2.041.095-.089.467-.05.548.056.116.149.186.511.09.613-.672.722-1.39 1.401-2.098 2.09-.052.05-.143.06-.209.086"/>
        </g>
        <g opacity=".85">
            <path d="M332.892 138.913c-.926 0-1.853.036-2.776-.017-.387-.023-.904-.117-1.12-.384-1.432-1.757-2.79-3.575-3.24-5.902-.722-3.728 1.776-7.558 5.42-8.31 3.874-.8 7.654 1.657 8.457 5.464.436 2.064-.062 3.946-.986 5.748-.474.922-1.047 1.79-1.535 2.706-.262.494-.63.698-1.156.694-1.021-.007-2.042-.002-3.064-.002v.003zM332.82 141.067c-.957 0-1.915.004-2.873-.001-.409-.002-.815-.082-.81-.606.005-.509.41-.623.814-.625 1.979-.01 3.958-.012 5.937.005.398.004.783.123.75.67-.029.492-.389.55-.753.553-1.021.01-2.043.004-3.064.004M332.831 143.29h-2.297c-.42-.001-.806-.116-.819-.613-.013-.52.4-.619.804-.621 1.564-.01 3.127-.01 4.69-.003.436.002.878.063.848.663-.026.527-.425.577-.832.576-.798-.002-1.596 0-2.394-.001M332.879 144.468c.317 0 .635-.008.953.002.876.027 1.114.396.818 1.25-.281.809-1.093 1.366-1.922 1.32-.858-.048-1.605-.682-1.773-1.506-.154-.752.046-1.032.78-1.062.38-.016.763-.003 1.144-.004M333.26 119.498c0 .554.059 1.117-.027 1.657-.038.236-.37.423-.57.632-.199-.204-.56-.4-.57-.613a36.567 36.567 0 0 1-.004-3.42c.009-.201.366-.57.5-.543.246.05.601.313.635.532.09.572.03 1.168.03 1.755h.006zM344.313 132.036c-.507 0-1.023.06-1.516-.026-.245-.042-.445-.35-.665-.539.22-.224.428-.627.66-.642 1.073-.07 2.154-.07 3.227-.001.233.015.442.42.663.645-.22.188-.422.503-.662.537-.56.08-1.137.026-1.707.026M321 132.138c-.539 0-1.09.069-1.611-.029-.256-.048-.457-.404-.683-.621.211-.196.414-.552.634-.563a31.116 31.116 0 0 1 3.323.01c.21.012.399.391.597.601-.214.2-.407.531-.647.571-.525.088-1.074.027-1.612.027v.004zM326.192 124.241c-.018.405-.716.702-1.07.373a39.649 39.649 0 0 1-2.418-2.487c-.11-.121-.076-.526.042-.675.122-.154.549-.287.634-.205.943.911 1.846 1.865 2.756 2.812.04.04.038.12.056.182M339.81 124.798c-.439.029-.78-.622-.45-1.005.774-.898 1.623-1.733 2.48-2.55.117-.111.57-.062.668.07.14.185.226.639.11.765-.818.903-1.692 1.753-2.555 2.613-.063.063-.173.075-.254.107"/>
        </g>
        <path d="M241.172 421.533c-.86 0-1.72.033-2.577-.015-.36-.02-.84-.105-1.041-.345-1.33-1.582-2.59-3.218-3.009-5.312-.67-3.355 1.65-6.803 5.034-7.48 3.597-.72 7.107 1.492 7.853 4.918.405 1.858-.058 3.552-.916 5.173-.44.83-.972 1.612-1.425 2.436-.244.444-.584.628-1.073.625-.949-.007-1.897-.002-2.846-.002v.002zM241.106 423.472c-.89 0-1.779.004-2.668-.001-.38-.002-.757-.073-.753-.545.005-.458.382-.561.756-.563 1.838-.01 3.676-.011 5.514.005.369.003.726.11.696.603-.027.443-.361.494-.7.498-.948.009-1.897.003-2.845.003M241.116 425.473h-2.133c-.39-.001-.749-.104-.76-.552-.013-.467.37-.557.746-.56 1.452-.008 2.904-.008 4.355-.002.404.002.815.057.788.597-.025.475-.395.519-.774.518h-2.222M241.16 426.533c.295 0 .59-.008.885.001.813.025 1.035.357.76 1.125a1.833 1.833 0 0 1-1.785 1.188c-.797-.042-1.49-.613-1.647-1.355-.142-.677.043-.928.725-.956.353-.014.708-.003 1.062-.003M241.514 404.06c0 .498.054 1.005-.026 1.491-.034.213-.344.38-.528.569-.185-.184-.52-.36-.53-.552a31.898 31.898 0 0 1-.003-3.077c.008-.182.34-.515.463-.49.23.046.56.282.59.479.084.515.029 1.051.029 1.58h.005zM251.777 415.344c-.47 0-.95.054-1.407-.023-.227-.038-.414-.316-.618-.485.204-.202.397-.565.614-.579.995-.063 2-.063 2.995 0 .217.013.411.378.616.58-.204.17-.392.453-.615.484-.519.072-1.055.023-1.585.023M230.13 415.436c-.5 0-1.012.062-1.496-.026-.238-.044-.424-.364-.634-.56.195-.176.384-.496.588-.506a29.81 29.81 0 0 1 3.086.009c.194.01.37.352.554.541-.199.18-.378.478-.6.514-.488.079-.997.024-1.498.024v.004zM234.95 408.329c-.016.364-.664.631-.993.335a36.225 36.225 0 0 1-2.245-2.238c-.102-.11-.07-.473.039-.607.113-.139.51-.26.589-.185.875.82 1.714 1.679 2.559 2.53.036.037.036.11.052.165M247.596 408.83c-.408.025-.724-.56-.418-.904.72-.81 1.507-1.56 2.304-2.296.107-.1.528-.055.62.063.13.167.21.575.102.69-.76.811-1.572 1.576-2.373 2.35-.058.057-.161.068-.235.097"/>
        <g>
            <path d="M93.172 421.533c-.86 0-1.72.033-2.577-.015-.36-.02-.84-.105-1.041-.345-1.33-1.582-2.59-3.218-3.009-5.312-.67-3.355 1.65-6.803 5.034-7.48 3.597-.72 7.107 1.492 7.853 4.918.405 1.858-.058 3.552-.916 5.173-.44.83-.972 1.612-1.425 2.436-.244.444-.584.628-1.073.625-.949-.007-1.897-.002-2.846-.002v.002zM93.106 423.472c-.89 0-1.779.004-2.668-.001-.38-.002-.757-.073-.753-.545.005-.458.382-.561.756-.563 1.838-.01 3.676-.011 5.514.005.369.003.726.11.696.603-.027.443-.361.494-.7.498-.948.009-1.897.003-2.845.003M93.116 425.473h-2.133c-.39-.001-.749-.104-.76-.552-.013-.467.37-.557.746-.56 1.452-.008 2.904-.008 4.355-.002.404.002.815.057.788.597-.025.475-.395.519-.774.518h-2.222M93.16 426.533c.295 0 .59-.008.885.001.813.025 1.035.357.76 1.125a1.833 1.833 0 0 1-1.785 1.188c-.797-.042-1.49-.613-1.647-1.355-.142-.677.043-.928.725-.956.353-.014.708-.003 1.062-.003M93.514 404.06c0 .498.054 1.005-.026 1.491-.034.213-.344.38-.528.569-.185-.184-.52-.36-.53-.552a31.898 31.898 0 0 1-.003-3.077c.008-.182.34-.515.463-.49.23.046.56.282.59.479.084.515.029 1.051.029 1.58h.005zM103.777 415.344c-.47 0-.95.054-1.407-.023-.227-.038-.414-.316-.618-.485.204-.202.397-.565.614-.579.995-.063 2-.063 2.995 0 .217.013.411.378.616.58-.204.17-.392.453-.615.484-.519.072-1.055.023-1.585.023M82.13 415.436c-.5 0-1.012.062-1.496-.026-.238-.044-.424-.364-.634-.56.195-.176.384-.496.588-.506a29.81 29.81 0 0 1 3.086.009c.194.01.37.352.554.541-.199.18-.378.478-.6.514-.488.079-.997.024-1.498.024v.004zM86.95 408.329c-.016.364-.664.631-.993.335a36.225 36.225 0 0 1-2.245-2.238c-.102-.11-.07-.473.039-.607.113-.139.51-.26.589-.185.875.82 1.714 1.679 2.559 2.53.036.037.036.11.052.165M99.596 408.83c-.408.025-.724-.56-.418-.904.72-.81 1.507-1.56 2.304-2.296.107-.1.528-.055.62.063.13.167.21.575.102.69-.76.811-1.572 1.576-2.373 2.35-.058.057-.161.068-.235.097"/>
        </g>
        <g opacity=".85">
            <path d="M264.463 122.334c-1.025 0-2.052.039-3.073-.019-.429-.024-1.001-.124-1.241-.409-1.585-1.874-3.089-3.813-3.587-6.295-.799-3.977 1.967-8.063 6.002-8.865 4.288-.853 8.473 1.768 9.362 5.828.483 2.202-.068 4.21-1.092 6.132-.524.984-1.159 1.91-1.699 2.887-.29.526-.697.744-1.28.74-1.13-.008-2.261-.002-3.392-.002v.003zM264.384 124.632c-1.06 0-2.12.004-3.181-.002-.453-.002-.903-.087-.898-.646.005-.543.455-.665.901-.667 2.192-.01 4.383-.013 6.574.006.44.004.867.13.83.714-.032.525-.43.586-.833.59-1.131.011-2.262.004-3.393.005M264.396 127.003h-2.544c-.464-.002-.892-.124-.906-.655-.015-.553.442-.66.89-.662 1.73-.01 3.462-.01 5.193-.003.481.002.972.067.938.707-.029.563-.47.615-.922.614-.883-.002-1.766 0-2.65 0M264.448 128.26c.352 0 .704-.01 1.056.001.97.03 1.233.422.905 1.333-.311.863-1.21 1.458-2.128 1.408-.95-.05-1.777-.727-1.963-1.606-.17-.802.05-1.1.864-1.133.421-.017.844-.003 1.266-.003M264.87 101.624c0 .59.065 1.192-.03 1.768-.041.252-.41.45-.63.674-.22-.218-.62-.426-.632-.654a37.58 37.58 0 0 1-.004-3.647c.01-.215.405-.61.553-.58.273.054.666.333.704.567.099.61.033 1.246.033 1.872h.006zM277.107 114.998c-.56 0-1.133.064-1.678-.027-.27-.045-.493-.374-.736-.575.243-.24.473-.67.731-.686a28.665 28.665 0 0 1 3.572 0c.258.016.49.448.734.688-.243.2-.467.536-.733.573-.62.085-1.258.027-1.89.027M251.297 115.107c-.597 0-1.207.073-1.784-.03-.284-.052-.506-.432-.756-.664.234-.209.458-.588.701-.6a35.755 35.755 0 0 1 3.68.01c.232.013.441.418.66.642-.236.213-.45.567-.715.61-.582.093-1.19.028-1.786.028v.004zM257.045 106.684c-.02.432-.793.748-1.185.397-.936-.837-1.818-1.737-2.677-2.652-.121-.13-.084-.561.047-.72.135-.164.607-.307.702-.22 1.044.973 2.044 1.99 3.05 3 .044.044.044.13.063.195M272.121 107.278c-.485.03-.863-.664-.498-1.072.858-.958 1.798-1.849 2.747-2.721.129-.118.63-.065.74.075.155.198.25.682.122.817-.907.962-1.875 1.869-2.83 2.786-.07.067-.192.08-.28.115"/>
        </g>
        <g opacity=".7">
            <path d="M179.975 390.79c-.96 0-1.92.036-2.876-.018-.4-.022-.936-.116-1.16-.383-1.483-1.757-2.89-3.575-3.356-5.902-.747-3.728 1.84-7.558 5.615-8.31 4.012-.8 7.927 1.657 8.758 5.464.452 2.064-.064 3.946-1.021 5.748-.49.922-1.085 1.79-1.59 2.706-.272.494-.652.698-1.197.694-1.058-.007-2.116-.002-3.173-.002v.003zM179.9 392.944c-.992 0-1.984.004-2.975-.001-.424-.002-.845-.082-.84-.606.005-.509.426-.623.843-.625 2.05-.01 4.1-.012 6.15.005.411.004.81.123.777.67-.03.492-.403.55-.78.553-1.058.01-2.117.004-3.175.004M179.911 395.168l-2.379-.001c-.434-.001-.835-.116-.848-.613-.013-.52.413-.619.833-.621 1.62-.01 3.238-.01 4.858-.003.45.002.909.063.878.663-.027.527-.44.577-.863.576-.826-.002-1.652 0-2.479-.001M179.96 396.345c.33 0 .659-.008.988.002.907.027 1.154.396.847 1.25a2.044 2.044 0 0 1-1.99 1.32c-.89-.048-1.663-.682-1.837-1.506-.16-.752.047-1.032.808-1.062.394-.017.79-.003 1.185-.004M180.355 371.375c0 .554.061 1.117-.028 1.657-.039.236-.384.423-.59.632-.206-.204-.58-.4-.59-.613a35.307 35.307 0 0 1-.004-3.42c.009-.201.379-.571.517-.543.255.05.623.313.659.532.092.572.03 1.168.03 1.755h.006zM191.803 383.913c-.525 0-1.06.06-1.57-.026-.253-.042-.46-.35-.689-.539.228-.224.443-.627.684-.643 1.111-.07 2.231-.07 3.342 0 .241.015.458.42.686.645-.227.188-.436.503-.685.537-.58.08-1.177.026-1.768.026M167.658 384.015c-.558 0-1.129.069-1.67-.029-.264-.048-.472-.404-.706-.621.218-.196.429-.552.656-.563a33.376 33.376 0 0 1 3.442.01c.217.012.413.391.618.601-.221.2-.421.531-.67.571-.543.088-1.112.027-1.67.027v.004zM173.035 376.118c-.019.405-.741.702-1.109.373a40.328 40.328 0 0 1-2.504-2.487c-.113-.121-.078-.526.044-.675.126-.154.568-.287.656-.205.977.911 1.913 1.865 2.855 2.812.04.04.04.12.058.182M187.139 376.675c-.454.028-.807-.622-.466-1.005.802-.898 1.681-1.733 2.57-2.55.12-.111.589-.062.691.07.145.185.234.639.114.765-.848.903-1.753 1.753-2.647 2.613-.065.063-.18.075-.262.107"/>
        </g>
        <g opacity=".85">
            <path d="M133.428 135.903c-.76 0-1.522.03-2.28-.014-.318-.018-.743-.093-.92-.306-1.177-1.406-2.292-2.86-2.662-4.722-.593-2.982 1.46-6.047 4.453-6.648 3.182-.64 6.287 1.325 6.947 4.37.357 1.652-.051 3.158-.81 4.6-.39.737-.86 1.432-1.261 2.165-.216.394-.517.558-.95.555-.839-.006-1.678-.002-2.517-.002v.002zM133.37 137.627c-.787 0-1.574.003-2.36-.001-.337-.002-.67-.066-.667-.485.004-.407.338-.499.669-.5 1.626-.008 3.252-.01 4.877.004.327.003.643.099.616.536-.024.394-.32.44-.618.443-.84.008-1.679.002-2.518.003M133.378 139.406l-1.887-.001c-.344 0-.662-.093-.672-.49-.011-.416.327-.496.66-.498 1.284-.007 2.569-.007 3.853-.002.357.002.72.05.696.53-.021.423-.349.462-.684.461h-1.966M133.417 140.348c.261 0 .522-.007.783 0 .72.023.915.318.672 1a1.621 1.621 0 0 1-1.579 1.057c-.704-.038-1.318-.546-1.456-1.205-.127-.601.037-.825.64-.85.313-.013.627-.002.94-.002M133.73 120.371c0 .443.048.894-.022 1.326-.03.189-.305.338-.468.505-.163-.163-.46-.319-.468-.49a28.491 28.491 0 0 1-.004-2.735c.008-.162.301-.458.41-.435.203.04.495.25.523.425.074.458.025.935.025 1.404h.004zM142.81 130.402c-.417 0-.841.047-1.246-.02-.2-.035-.365-.281-.546-.432.18-.18.351-.502.543-.514a21.04 21.04 0 0 1 2.65-.001c.191.012.363.336.544.517-.18.15-.346.401-.544.429-.459.064-.933.02-1.402.02M123.66 130.484c-.443 0-.896.054-1.324-.024-.21-.038-.375-.323-.56-.497.173-.157.34-.44.52-.45a26.243 26.243 0 0 1 2.73.008c.172.01.327.313.49.48-.176.16-.334.426-.531.458-.432.07-.882.021-1.325.021v.004zM127.924 124.166c-.014.324-.588.561-.879.298a32.122 32.122 0 0 1-1.986-1.99c-.09-.096-.062-.42.035-.54.1-.122.45-.23.52-.163.775.728 1.517 1.492 2.264 2.25.033.032.032.096.046.145M139.11 124.612c-.36.022-.64-.498-.37-.804.637-.72 1.334-1.387 2.039-2.041.095-.089.467-.05.548.056.115.149.185.511.09.613-.672.722-1.39 1.401-2.099 2.09-.051.05-.142.06-.208.086"/>
        </g>
        <g>
            <path d="M33.856 32.87c-1.091 0-2.185.043-3.272-.02-.456-.026-1.065-.136-1.321-.447-1.687-2.05-3.288-4.17-3.818-6.886-.85-4.349 2.094-8.818 6.389-9.695 4.565-.933 9.02 1.933 9.967 6.374.513 2.408-.073 4.605-1.163 6.707-.558 1.076-1.234 2.09-1.809 3.157-.31.576-.741.814-1.362.81-1.204-.008-2.407-.003-3.611-.003v.004zM33.771 35.384c-1.128 0-2.257.005-3.386-.001-.482-.003-.96-.096-.955-.707.005-.594.484-.728.959-.73a509.72 509.72 0 0 1 6.998.007c.468.004.922.143.884.781-.034.574-.459.641-.888.645-1.204.012-2.408.004-3.612.005M33.784 37.978l-2.708-.001c-.493-.001-.95-.135-.965-.716-.015-.605.47-.721.948-.724 1.843-.011 3.685-.011 5.528-.003.513.002 1.034.073 1 .773-.032.616-.502.673-.982.672-.94-.002-1.881 0-2.821-.001M33.84 39.352c.374 0 .75-.01 1.123.002 1.032.032 1.314.462.964 1.458-.331.944-1.288 1.594-2.265 1.54-1.01-.056-1.891-.796-2.09-1.757-.181-.877.054-1.203.92-1.24.449-.018.899-.003 1.348-.003M34.289 10.22c0 .646.07 1.304-.032 1.933-.044.275-.437.493-.671.737-.235-.238-.66-.466-.672-.715a42.23 42.23 0 0 1-.005-3.99c.01-.234.432-.666.589-.634.29.06.709.365.75.621.105.667.035 1.363.035 2.047h.006zM47.316 24.847c-.598 0-1.206.07-1.787-.03-.288-.049-.524-.408-.784-.628.259-.262.505-.733.779-.75a29.7 29.7 0 0 1 3.802-.001c.275.018.522.49.781.753-.258.219-.496.586-.78.626-.659.094-1.34.03-2.011.03M19.84 24.967c-.635 0-1.284.08-1.899-.034-.302-.056-.538-.472-.804-.725.248-.229.487-.643.746-.656a37.046 37.046 0 0 1 3.917.01c.247.015.47.457.704.702-.253.233-.48.62-.763.667-.619.102-1.265.031-1.9.031v.005zM25.959 15.754c-.021.472-.844.818-1.261.434-.997-.915-1.936-1.9-2.85-2.9-.13-.142-.09-.614.05-.788.143-.18.646-.336.747-.24 1.111 1.063 2.176 2.176 3.248 3.28.046.048.045.142.066.214M42.008 16.404c-.517.032-.918-.727-.53-1.173.913-1.048 1.913-2.022 2.924-2.976.137-.129.67-.072.787.082.165.217.266.746.13.893-.965 1.053-1.995 2.045-3.012 3.048-.074.073-.204.088-.299.126"/>
        </g>
        <g opacity=".85">
            <path d="M21.286 268.917c-.76 0-1.523.03-2.28-.015-.318-.018-.743-.097-.921-.319-1.176-1.465-2.292-2.979-2.662-4.918-.592-3.107 1.46-6.299 4.454-6.926a5.868 5.868 0 0 1 6.946 4.553c.358 1.72-.05 3.29-.81 4.79-.39.77-.86 1.493-1.26 2.256-.217.411-.518.582-.95.578-.84-.006-1.678-.001-2.517-.001v.002zM21.227 270.712c-.787 0-1.574.004-2.36 0-.336-.003-.67-.069-.666-.506.004-.424.337-.52.668-.521 1.626-.008 3.252-.01 4.878.005.326.003.643.102.616.558-.024.41-.32.458-.619.46-.839.01-1.678.004-2.517.004M21.236 272.565h-1.887c-.345-.001-.663-.097-.673-.512-.01-.432.328-.515.66-.517 1.285-.008 2.569-.008 3.853-.002.358.001.721.052.697.552-.022.44-.35.48-.684.48-.656-.002-1.311 0-1.966-.001M21.275 273.547c.26 0 .522-.008.783 0 .719.024.915.33.671 1.042-.23.674-.897 1.139-1.578 1.1a1.595 1.595 0 0 1-1.457-1.255c-.126-.626.038-.86.641-.885.313-.013.627-.002.94-.002M21.588 252.737c0 .462.048.932-.023 1.382-.03.196-.304.352-.467.526-.164-.17-.46-.333-.469-.51-.047-.949-.043-1.901-.003-2.85.007-.168.3-.476.41-.453.203.042.494.26.523.443.073.477.024.974.024 1.462h.005zM30.667 263.186c-.416 0-.84.05-1.245-.021-.201-.035-.366-.292-.547-.45.18-.186.352-.523.543-.535a20.2 20.2 0 0 1 2.65 0c.192.012.363.35.545.537-.18.157-.347.419-.544.448-.46.067-.934.021-1.402.021M11.518 263.271c-.443 0-.896.058-1.324-.024-.21-.04-.375-.337-.56-.518.172-.163.339-.46.52-.468a25.195 25.195 0 0 1 2.73.008c.171.01.327.326.49.5-.176.167-.335.443-.532.477-.431.073-.882.022-1.324.022v.003zM15.782 256.69c-.015.338-.588.585-.88.311a32.829 32.829 0 0 1-1.985-2.072c-.09-.101-.063-.438.034-.562.1-.129.451-.24.521-.172.775.76 1.517 1.555 2.264 2.344.032.033.032.1.046.152M26.968 257.155c-.36.023-.64-.52-.37-.838.637-.749 1.334-1.444 2.038-2.126.095-.092.468-.05.549.059.115.155.185.533.09.638-.672.752-1.39 1.46-2.1 2.177-.05.052-.141.063-.207.09"/>
        </g>
        <g opacity=".7">
            <path d="M91.325 82.36c-1.223 0-2.449.046-3.668-.022-.511-.029-1.194-.148-1.481-.485-1.892-2.227-3.686-4.529-4.281-7.477-.954-4.721 2.348-9.573 7.163-10.526 5.119-1.013 10.114 2.099 11.175 6.92.576 2.615-.082 5-1.304 7.282-.625 1.168-1.383 2.268-2.027 3.428-.347.625-.832.884-1.528.88-1.35-.01-2.699-.004-4.049-.004v.004zM91.23 85.089c-1.265 0-2.53.005-3.796-.002-.54-.003-1.077-.103-1.071-.767.006-.645.543-.79 1.075-.793a590.19 590.19 0 0 1 7.846.008c.526.004 1.034.155.992.848-.039.624-.515.696-.996.7-1.35.014-2.7.005-4.05.006M91.245 87.905l-3.036-.001c-.554-.001-1.065-.146-1.082-.777-.017-.657.528-.783 1.063-.786 2.066-.013 4.132-.012 6.197-.004.575.003 1.16.08 1.12.84-.034.668-.56.73-1.1.73-1.054-.003-2.108-.001-3.162-.002M91.308 89.397c.42 0 .84-.011 1.26.002 1.156.035 1.472.501 1.08 1.583-.372 1.025-1.444 1.73-2.54 1.672-1.133-.06-2.12-.864-2.343-1.908-.203-.952.06-1.306 1.031-1.345.503-.02 1.008-.004 1.512-.004M91.811 57.767c0 .702.078 1.416-.036 2.1-.05.299-.49.535-.752.8-.263-.258-.74-.506-.754-.777a44.4 44.4 0 0 1-.005-4.33c.011-.256.484-.725.66-.69.326.065.795.397.84.674.118.725.04 1.48.04 2.223h.007zM106.417 73.649c-.67 0-1.352.076-2.003-.032-.324-.054-.588-.444-.88-.683.29-.284.566-.795.874-.814a34.387 34.387 0 0 1 4.263-.001c.308.019.584.532.876.818-.29.237-.557.636-.875.68-.739.101-1.502.032-2.255.032M75.611 73.779c-.712 0-1.44.087-2.13-.037-.338-.061-.603-.512-.901-.787.278-.249.546-.699.836-.713a42.892 42.892 0 0 1 4.392.012c.277.016.527.496.79.762-.284.253-.54.673-.856.723-.694.111-1.419.035-2.13.035v.005zM82.471 63.776c-.023.513-.945.889-1.414.472-1.117-.994-2.17-2.063-3.195-3.15-.145-.154-.1-.666.056-.855.161-.195.725-.364.837-.26 1.246 1.154 2.44 2.363 3.642 3.562.052.051.051.153.074.231M100.466 64.482c-.58.035-1.03-.79-.594-1.273 1.023-1.139 2.145-2.196 3.278-3.232.153-.14.752-.077.882.089.186.235.298.81.146.97-1.082 1.143-2.237 2.22-3.377 3.31-.083.079-.23.094-.335.136"/>
        </g>
        <g opacity=".85">
            <path d="M563.233 340.038c-2.293 4.865-4.343 9.212-6.46 13.699l9.791 2.497-16.164 17.802 5.013-13.58-9.791-2.498 17.611-17.92"/>
        </g>
        <g>
            <path d="M630.447 200.53l-7.383 16.116 11.19 2.938-18.474 20.943 5.73-15.977-11.19-2.938 20.127-21.082"/>
        </g>
        <g opacity=".85">
            <path d="M556.813 131.324l-7.69 16.922 11.655 3.085-19.243 21.99 5.968-16.776-11.656-3.084 20.966-22.137"/>
        </g>
        <g opacity=".7">
            <path d="M591.8.633l-5.845 12.893 8.858 2.35-14.625 16.755 4.536-12.782-8.859-2.35L591.8.633"/>
        </g>
        <g opacity=".85">
            <path d="M451.025 122.163l-5.537 12.087 8.393 2.203-13.856 15.708 4.297-11.983-8.392-2.203 15.095-15.812"/>
        </g>
        <g>
            <path d="M341.403 429.949l-4.922 10.475 7.46 1.91-12.316 13.613c1.355-3.683 2.57-6.99 3.82-10.385l-7.46-1.91 13.418-13.703"/>
        </g>
        <g opacity=".85">
            <path d="M340.84 32.744l-5.844 12.893 8.858 2.35-14.625 16.755 4.536-12.782-8.858-2.35 15.934-16.866"/>
        </g>
        <g opacity=".7">
            <path d="M303.013 273.41l-7.998 17.325 12.122 3.158c-6.59 7.415-13.074 14.707-20.014 22.514l6.207-17.175-12.122-3.158c7.195-7.48 14.248-14.81 21.805-22.664"/>
        </g>
        <g opacity=".85">
            <path d="M229.964 63.414L222.58 79.53l11.19 2.938-18.474 20.943 5.73-15.977-11.19-2.938 20.127-21.082"/>
        </g>
        <g>
            <path d="M136.42 273.09l-7.076 15.713 10.724 2.865-17.705 20.42 5.491-15.578-10.723-2.865 19.288-20.555"/>
        </g>
        <g opacity=".85">
            <path d="M178.07 182.86l-7.382 16.117 11.19 2.938-18.475 20.943 5.73-15.977-11.19-2.938 20.127-21.082"/>
        </g>
        <g opacity=".7">
            <path d="M19.212 379.968l-6.767 14.907 10.257 2.718-16.935 19.373 5.252-14.78c-3.406-.901-6.725-1.781-10.257-2.717l18.45-19.5"/>
        </g>
        <g opacity=".85">
            <path d="M94.726 323.5l-7.69 16.518 11.655 3.012-19.243 21.467 5.968-16.377-11.656-3.011 20.966-21.61"/>
        </g>
        <g>
            <path d="M35.052 90.69c-2.293 5.008-4.343 9.482-6.46 14.102 3.272.859 6.435 1.69 9.792 2.57l-16.165 18.326 5.013-13.98-9.79-2.57c5.81-6.088 11.507-12.055 17.61-18.448"/>
        </g>
        <g>
            <path d="M174.052 20.69c-2.293 5.008-4.343 9.482-6.46 14.102 3.272.859 6.435 1.69 9.792 2.57l-16.165 18.326 5.013-13.98-9.79-2.57c5.81-6.088 11.507-12.055 17.61-18.448"/>
        </g>
    </g>
</svg>
