<?xml version="1.0" encoding="UTF-8"?>
<svg width="1557px" height="21px" viewBox="0 0 1557 21" version="1.1" xmlns="http://www.w3.org/2000/svg" xmlns:xlink="http://www.w3.org/1999/xlink">
    <!-- Generator: Sketch 47.1 (45422) - http://www.bohemiancoding.com/sketch -->
    <title>slash-progress-bar</title>
    <desc>Created with Sketch.</desc>
    <defs></defs>
    <g id="Artboards" stroke="none" stroke-width="1" fill="none" fill-rule="evenodd">
        <g id="Artboard" transform="translate(-178.000000, -228.000000)" fill="#C8102E">
            <path d="M179.635801,248.016 L178.195801,248.016 C178.027801,248.016 177.955801,247.92 178.027801,247.728 L186.571801,228.288 C186.643801,228.096 186.835801,228 187.027801,228 L188.443801,228 C188.635801,228 188.683801,228.096 188.587801,228.288 L180.043801,247.728 C179.971801,247.92 179.803801,248.016 179.635801,248.016 Z M189.355801,248.016 L187.915801,248.016 C187.747801,248.016 187.675801,247.92 187.747801,247.728 L196.291801,228.288 C196.363801,228.096 196.555801,228 196.747801,228 L198.163801,228 C198.355801,228 198.403801,228.096 198.307801,228.288 L189.763801,247.728 C189.691801,247.92 189.523801,248.016 189.355801,248.016 Z M199.075801,248.016 L197.635801,248.016 C197.467801,248.016 197.395801,247.92 197.467801,247.728 L206.011801,228.288 C206.083801,228.096 206.275801,228 206.467801,228 L207.883801,228 C208.075801,228 208.123801,228.096 208.027801,228.288 L199.483801,247.728 C199.411801,247.92 199.243801,248.016 199.075801,248.016 Z M208.795801,248.016 L207.355801,248.016 C207.187801,248.016 207.115801,247.92 207.187801,247.728 L215.731801,228.288 C215.803801,228.096 215.995801,228 216.187801,228 L217.603801,228 C217.795801,228 217.843801,228.096 217.747801,228.288 L209.203801,247.728 C209.131801,247.92 208.963801,248.016 208.795801,248.016 Z M218.515801,248.016 L217.075801,248.016 C216.907801,248.016 216.835801,247.92 216.907801,247.728 L225.451801,228.288 C225.523801,228.096 225.715801,228 225.907801,228 L227.323801,228 C227.515801,228 227.563801,228.096 227.467801,228.288 L218.923801,247.728 C218.851801,247.92 218.683801,248.016 218.515801,248.016 Z M228.235801,248.016 L226.795801,248.016 C226.627801,248.016 226.555801,247.92 226.627801,247.728 L235.171801,228.288 C235.243801,228.096 235.435801,228 235.627801,228 L237.043801,228 C237.235801,228 237.283801,228.096 237.187801,228.288 L228.643801,247.728 C228.571801,247.92 228.403801,248.016 228.235801,248.016 Z M237.955801,248.016 L236.515801,248.016 C236.347801,248.016 236.275801,247.92 236.347801,247.728 L244.891801,228.288 C244.963801,228.096 245.155801,228 245.347801,228 L246.763801,228 C246.955801,228 247.003801,228.096 246.907801,228.288 L238.363801,247.728 C238.291801,247.92 238.123801,248.016 237.955801,248.016 Z M247.675801,248.016 L246.235801,248.016 C246.067801,248.016 245.995801,247.92 246.067801,247.728 L254.611801,228.288 C254.683801,228.096 254.875801,228 255.067801,228 L256.483801,228 C256.675801,228 256.723801,228.096 256.627801,228.288 L248.083801,247.728 C248.011801,247.92 247.843801,248.016 247.675801,248.016 Z M257.395801,248.016 L255.955801,248.016 C255.787801,248.016 255.715801,247.92 255.787801,247.728 L264.331801,228.288 C264.403801,228.096 264.595801,228 264.787801,228 L266.203801,228 C266.395801,228 266.443801,228.096 266.347801,228.288 L257.803801,247.728 C257.731801,247.92 257.563801,248.016 257.395801,248.016 Z M267.115801,248.016 L265.675801,248.016 C265.507801,248.016 265.435801,247.92 265.507801,247.728 L274.051801,228.288 C274.123801,228.096 274.315801,228 274.507801,228 L275.923801,228 C276.115801,228 276.163801,228.096 276.067801,228.288 L267.523801,247.728 C267.451801,247.92 267.283801,248.016 267.115801,248.016 Z M276.835801,248.016 L275.395801,248.016 C275.227801,248.016 275.155801,247.92 275.227801,247.728 L283.771801,228.288 C283.843801,228.096 284.035801,228 284.227801,228 L285.643801,228 C285.835801,228 285.883801,228.096 285.787801,228.288 L277.243801,247.728 C277.171801,247.92 277.003801,248.016 276.835801,248.016 Z M286.555801,248.016 L285.115801,248.016 C284.947801,248.016 284.875801,247.92 284.947801,247.728 L293.491801,228.288 C293.563801,228.096 293.755801,228 293.947801,228 L295.363801,228 C295.555801,228 295.603801,228.096 295.507801,228.288 L286.963801,247.728 C286.891801,247.92 286.723801,248.016 286.555801,248.016 Z M296.275801,248.016 L294.835801,248.016 C294.667801,248.016 294.595801,247.92 294.667801,247.728 L303.211801,228.288 C303.283801,228.096 303.475801,228 303.667801,228 L305.083801,228 C305.275801,228 305.323801,228.096 305.227801,228.288 L296.683801,247.728 C296.611801,247.92 296.443801,248.016 296.275801,248.016 Z M305.995801,248.016 L304.555801,248.016 C304.387801,248.016 304.315801,247.92 304.387801,247.728 L312.931801,228.288 C313.003801,228.096 313.195801,228 313.387801,228 L314.803801,228 C314.995801,228 315.043801,228.096 314.947801,228.288 L306.403801,247.728 C306.331801,247.92 306.163801,248.016 305.995801,248.016 Z M315.715801,248.016 L314.275801,248.016 C314.107801,248.016 314.035801,247.92 314.107801,247.728 L322.651801,228.288 C322.723801,228.096 322.915801,228 323.107801,228 L324.523801,228 C324.715801,228 324.763801,228.096 324.667801,228.288 L316.123801,247.728 C316.051801,247.92 315.883801,248.016 315.715801,248.016 Z M325.435801,248.016 L323.995801,248.016 C323.827801,248.016 323.755801,247.92 323.827801,247.728 L332.371801,228.288 C332.443801,228.096 332.635801,228 332.827801,228 L334.243801,228 C334.435801,228 334.483801,228.096 334.387801,228.288 L325.843801,247.728 C325.771801,247.92 325.603801,248.016 325.435801,248.016 Z M335.155801,248.016 L333.715801,248.016 C333.547801,248.016 333.475801,247.92 333.547801,247.728 L342.091801,228.288 C342.163801,228.096 342.355801,228 342.547801,228 L343.963801,228 C344.155801,228 344.203801,228.096 344.107801,228.288 L335.563801,247.728 C335.491801,247.92 335.323801,248.016 335.155801,248.016 Z M344.875801,248.016 L343.435801,248.016 C343.267801,248.016 343.195801,247.92 343.267801,247.728 L351.811801,228.288 C351.883801,228.096 352.075801,228 352.267801,228 L353.683801,228 C353.875801,228 353.923801,228.096 353.827801,228.288 L345.283801,247.728 C345.211801,247.92 345.043801,248.016 344.875801,248.016 Z M354.595801,248.016 L353.155801,248.016 C352.987801,248.016 352.915801,247.92 352.987801,247.728 L361.531801,228.288 C361.603801,228.096 361.795801,228 361.987801,228 L363.403801,228 C363.595801,228 363.643801,228.096 363.547801,228.288 L355.003801,247.728 C354.931801,247.92 354.763801,248.016 354.595801,248.016 Z M364.315801,248.016 L362.875801,248.016 C362.707801,248.016 362.635801,247.92 362.707801,247.728 L371.251801,228.288 C371.323801,228.096 371.515801,228 371.707801,228 L373.123801,228 C373.315801,228 373.363801,228.096 373.267801,228.288 L364.723801,247.728 C364.651801,247.92 364.483801,248.016 364.315801,248.016 Z M374.035801,248.016 L372.595801,248.016 C372.427801,248.016 372.355801,247.92 372.427801,247.728 L380.971801,228.288 C381.043801,228.096 381.235801,228 381.427801,228 L382.843801,228 C383.035801,228 383.083801,228.096 382.987801,228.288 L374.443801,247.728 C374.371801,247.92 374.203801,248.016 374.035801,248.016 Z M383.755801,248.016 L382.315801,248.016 C382.147801,248.016 382.075801,247.92 382.147801,247.728 L390.691801,228.288 C390.763801,228.096 390.955801,228 391.147801,228 L392.563801,228 C392.755801,228 392.803801,228.096 392.707801,228.288 L384.163801,247.728 C384.091801,247.92 383.923801,248.016 383.755801,248.016 Z M393.475801,248.016 L392.035801,248.016 C391.867801,248.016 391.795801,247.92 391.867801,247.728 L400.411801,228.288 C400.483801,228.096 400.675801,228 400.867801,228 L402.283801,228 C402.475801,228 402.523801,228.096 402.427801,228.288 L393.883801,247.728 C393.811801,247.92 393.643801,248.016 393.475801,248.016 Z M403.195801,248.016 L401.755801,248.016 C401.587801,248.016 401.515801,247.92 401.587801,247.728 L410.131801,228.288 C410.203801,228.096 410.395801,228 410.587801,228 L412.003801,228 C412.195801,228 412.243801,228.096 412.147801,228.288 L403.603801,247.728 C403.531801,247.92 403.363801,248.016 403.195801,248.016 Z M412.915801,248.016 L411.475801,248.016 C411.307801,248.016 411.235801,247.92 411.307801,247.728 L419.851801,228.288 C419.923801,228.096 420.115801,228 420.307801,228 L421.723801,228 C421.915801,228 421.963801,228.096 421.867801,228.288 L413.323801,247.728 C413.251801,247.92 413.083801,248.016 412.915801,248.016 Z M422.635801,248.016 L421.195801,248.016 C421.027801,248.016 420.955801,247.92 421.027801,247.728 L429.571801,228.288 C429.643801,228.096 429.835801,228 430.027801,228 L431.443801,228 C431.635801,228 431.683801,228.096 431.587801,228.288 L423.043801,247.728 C422.971801,247.92 422.803801,248.016 422.635801,248.016 Z M432.355801,248.016 L430.915801,248.016 C430.747801,248.016 430.675801,247.92 430.747801,247.728 L439.291801,228.288 C439.363801,228.096 439.555801,228 439.747801,228 L441.163801,228 C441.355801,228 441.403801,228.096 441.307801,228.288 L432.763801,247.728 C432.691801,247.92 432.523801,248.016 432.355801,248.016 Z M442.075801,248.016 L440.635801,248.016 C440.467801,248.016 440.395801,247.92 440.467801,247.728 L449.011801,228.288 C449.083801,228.096 449.275801,228 449.467801,228 L450.883801,228 C451.075801,228 451.123801,228.096 451.027801,228.288 L442.483801,247.728 C442.411801,247.92 442.243801,248.016 442.075801,248.016 Z M451.795801,248.016 L450.355801,248.016 C450.187801,248.016 450.115801,247.92 450.187801,247.728 L458.731801,228.288 C458.803801,228.096 458.995801,228 459.187801,228 L460.603801,228 C460.795801,228 460.843801,228.096 460.747801,228.288 L452.203801,247.728 C452.131801,247.92 451.963801,248.016 451.795801,248.016 Z M461.515801,248.016 L460.075801,248.016 C459.907801,248.016 459.835801,247.92 459.907801,247.728 L468.451801,228.288 C468.523801,228.096 468.715801,228 468.907801,228 L470.323801,228 C470.515801,228 470.563801,228.096 470.467801,228.288 L461.923801,247.728 C461.851801,247.92 461.683801,248.016 461.515801,248.016 Z M471.235801,248.016 L469.795801,248.016 C469.627801,248.016 469.555801,247.92 469.627801,247.728 L478.171801,228.288 C478.243801,228.096 478.435801,228 478.627801,228 L480.043801,228 C480.235801,228 480.283801,228.096 480.187801,228.288 L471.643801,247.728 C471.571801,247.92 471.403801,248.016 471.235801,248.016 Z M480.955801,248.016 L479.515801,248.016 C479.347801,248.016 479.275801,247.92 479.347801,247.728 L487.891801,228.288 C487.963801,228.096 488.155801,228 488.347801,228 L489.763801,228 C489.955801,228 490.003801,228.096 489.907801,228.288 L481.363801,247.728 C481.291801,247.92 481.123801,248.016 480.955801,248.016 Z M490.675801,248.016 L489.235801,248.016 C489.067801,248.016 488.995801,247.92 489.067801,247.728 L497.611801,228.288 C497.683801,228.096 497.875801,228 498.067801,228 L499.483801,228 C499.675801,228 499.723801,228.096 499.627801,228.288 L491.083801,247.728 C491.011801,247.92 490.843801,248.016 490.675801,248.016 Z M500.395801,248.016 L498.955801,248.016 C498.787801,248.016 498.715801,247.92 498.787801,247.728 L507.331801,228.288 C507.403801,228.096 507.595801,228 507.787801,228 L509.203801,228 C509.395801,228 509.443801,228.096 509.347801,228.288 L500.803801,247.728 C500.731801,247.92 500.563801,248.016 500.395801,248.016 Z M510.115801,248.016 L508.675801,248.016 C508.507801,248.016 508.435801,247.92 508.507801,247.728 L517.051801,228.288 C517.123801,228.096 517.315801,228 517.507801,228 L518.923801,228 C519.115801,228 519.163801,228.096 519.067801,228.288 L510.523801,247.728 C510.451801,247.92 510.283801,248.016 510.115801,248.016 Z M519.835801,248.016 L518.395801,248.016 C518.227801,248.016 518.155801,247.92 518.227801,247.728 L526.771801,228.288 C526.843801,228.096 527.035801,228 527.227801,228 L528.643801,228 C528.835801,228 528.883801,228.096 528.787801,228.288 L520.243801,247.728 C520.171801,247.92 520.003801,248.016 519.835801,248.016 Z M529.555801,248.016 L528.115801,248.016 C527.947801,248.016 527.875801,247.92 527.947801,247.728 L536.491801,228.288 C536.563801,228.096 536.755801,228 536.947801,228 L538.363801,228 C538.555801,228 538.603801,228.096 538.507801,228.288 L529.963801,247.728 C529.891801,247.92 529.723801,248.016 529.555801,248.016 Z M539.275801,248.016 L537.835801,248.016 C537.667801,248.016 537.595801,247.92 537.667801,247.728 L546.211801,228.288 C546.283801,228.096 546.475801,228 546.667801,228 L548.083801,228 C548.275801,228 548.323801,228.096 548.227801,228.288 L539.683801,247.728 C539.611801,247.92 539.443801,248.016 539.275801,248.016 Z M548.995801,248.016 L547.555801,248.016 C547.387801,248.016 547.315801,247.92 547.387801,247.728 L555.931801,228.288 C556.003801,228.096 556.195801,228 556.387801,228 L557.803801,228 C557.995801,228 558.043801,228.096 557.947801,228.288 L549.403801,247.728 C549.331801,247.92 549.163801,248.016 548.995801,248.016 Z M558.715801,248.016 L557.275801,248.016 C557.107801,248.016 557.035801,247.92 557.107801,247.728 L565.651801,228.288 C565.723801,228.096 565.915801,228 566.107801,228 L567.523801,228 C567.715801,228 567.763801,228.096 567.667801,228.288 L559.123801,247.728 C559.051801,247.92 558.883801,248.016 558.715801,248.016 Z M568.435801,248.016 L566.995801,248.016 C566.827801,248.016 566.755801,247.92 566.827801,247.728 L575.371801,228.288 C575.443801,228.096 575.635801,228 575.827801,228 L577.243801,228 C577.435801,228 577.483801,228.096 577.387801,228.288 L568.843801,247.728 C568.771801,247.92 568.603801,248.016 568.435801,248.016 Z M578.155801,248.016 L576.715801,248.016 C576.547801,248.016 576.475801,247.92 576.547801,247.728 L585.091801,228.288 C585.163801,228.096 585.355801,228 585.547801,228 L586.963801,228 C587.155801,228 587.203801,228.096 587.107801,228.288 L578.563801,247.728 C578.491801,247.92 578.323801,248.016 578.155801,248.016 Z M587.875801,248.016 L586.435801,248.016 C586.267801,248.016 586.195801,247.92 586.267801,247.728 L594.811801,228.288 C594.883801,228.096 595.075801,228 595.267801,228 L596.683801,228 C596.875801,228 596.923801,228.096 596.827801,228.288 L588.283801,247.728 C588.211801,247.92 588.043801,248.016 587.875801,248.016 Z M597.595801,248.016 L596.155801,248.016 C595.987801,248.016 595.915801,247.92 595.987801,247.728 L604.531801,228.288 C604.603801,228.096 604.795801,228 604.987801,228 L606.403801,228 C606.595801,228 606.643801,228.096 606.547801,228.288 L598.003801,247.728 C597.931801,247.92 597.763801,248.016 597.595801,248.016 Z M607.315801,248.016 L605.875801,248.016 C605.707801,248.016 605.635801,247.92 605.707801,247.728 L614.251801,228.288 C614.323801,228.096 614.515801,228 614.707801,228 L616.123801,228 C616.315801,228 616.363801,228.096 616.267801,228.288 L607.723801,247.728 C607.651801,247.92 607.483801,248.016 607.315801,248.016 Z M617.035801,248.016 L615.595801,248.016 C615.427801,248.016 615.355801,247.92 615.427801,247.728 L623.971801,228.288 C624.043801,228.096 624.235801,228 624.427801,228 L625.843801,228 C626.035801,228 626.083801,228.096 625.987801,228.288 L617.443801,247.728 C617.371801,247.92 617.203801,248.016 617.035801,248.016 Z M626.755801,248.016 L625.315801,248.016 C625.147801,248.016 625.075801,247.92 625.147801,247.728 L633.691801,228.288 C633.763801,228.096 633.955801,228 634.147801,228 L635.563801,228 C635.755801,228 635.803801,228.096 635.707801,228.288 L627.163801,247.728 C627.091801,247.92 626.923801,248.016 626.755801,248.016 Z M636.475801,248.016 L635.035801,248.016 C634.867801,248.016 634.795801,247.92 634.867801,247.728 L643.411801,228.288 C643.483801,228.096 643.675801,228 643.867801,228 L645.283801,228 C645.475801,228 645.523801,228.096 645.427801,228.288 L636.883801,247.728 C636.811801,247.92 636.643801,248.016 636.475801,248.016 Z M646.195801,248.016 L644.755801,248.016 C644.587801,248.016 644.515801,247.92 644.587801,247.728 L653.131801,228.288 C653.203801,228.096 653.395801,228 653.587801,228 L655.003801,228 C655.195801,228 655.243801,228.096 655.147801,228.288 L646.603801,247.728 C646.531801,247.92 646.363801,248.016 646.195801,248.016 Z M655.915801,248.016 L654.475801,248.016 C654.307801,248.016 654.235801,247.92 654.307801,247.728 L662.851801,228.288 C662.923801,228.096 663.115801,228 663.307801,228 L664.723801,228 C664.915801,228 664.963801,228.096 664.867801,228.288 L656.323801,247.728 C656.251801,247.92 656.083801,248.016 655.915801,248.016 Z M665.635801,248.016 L664.195801,248.016 C664.027801,248.016 663.955801,247.92 664.027801,247.728 L672.571801,228.288 C672.643801,228.096 672.835801,228 673.027801,228 L674.443801,228 C674.635801,228 674.683801,228.096 674.587801,228.288 L666.043801,247.728 C665.971801,247.92 665.803801,248.016 665.635801,248.016 Z M675.355801,248.016 L673.915801,248.016 C673.747801,248.016 673.675801,247.92 673.747801,247.728 L682.291801,228.288 C682.363801,228.096 682.555801,228 682.747801,228 L684.163801,228 C684.355801,228 684.403801,228.096 684.307801,228.288 L675.763801,247.728 C675.691801,247.92 675.523801,248.016 675.355801,248.016 Z M685.075801,248.016 L683.635801,248.016 C683.467801,248.016 683.395801,247.92 683.467801,247.728 L692.011801,228.288 C692.083801,228.096 692.275801,228 692.467801,228 L693.883801,228 C694.075801,228 694.123801,228.096 694.027801,228.288 L685.483801,247.728 C685.411801,247.92 685.243801,248.016 685.075801,248.016 Z M694.795801,248.016 L693.355801,248.016 C693.187801,248.016 693.115801,247.92 693.187801,247.728 L701.731801,228.288 C701.803801,228.096 701.995801,228 702.187801,228 L703.603801,228 C703.795801,228 703.843801,228.096 703.747801,228.288 L695.203801,247.728 C695.131801,247.92 694.963801,248.016 694.795801,248.016 Z M704.515801,248.016 L703.075801,248.016 C702.907801,248.016 702.835801,247.92 702.907801,247.728 L711.451801,228.288 C711.523801,228.096 711.715801,228 711.907801,228 L713.323801,228 C713.515801,228 713.563801,228.096 713.467801,228.288 L704.923801,247.728 C704.851801,247.92 704.683801,248.016 704.515801,248.016 Z M714.235801,248.016 L712.795801,248.016 C712.627801,248.016 712.555801,247.92 712.627801,247.728 L721.171801,228.288 C721.243801,228.096 721.435801,228 721.627801,228 L723.043801,228 C723.235801,228 723.283801,228.096 723.187801,228.288 L714.643801,247.728 C714.571801,247.92 714.403801,248.016 714.235801,248.016 Z M723.955801,248.016 L722.515801,248.016 C722.347801,248.016 722.275801,247.92 722.347801,247.728 L730.891801,228.288 C730.963801,228.096 731.155801,228 731.347801,228 L732.763801,228 C732.955801,228 733.003801,228.096 732.907801,228.288 L724.363801,247.728 C724.291801,247.92 724.123801,248.016 723.955801,248.016 Z M733.675801,248.016 L732.235801,248.016 C732.067801,248.016 731.995801,247.92 732.067801,247.728 L740.611801,228.288 C740.683801,228.096 740.875801,228 741.067801,228 L742.483801,228 C742.675801,228 742.723801,228.096 742.627801,228.288 L734.083801,247.728 C734.011801,247.92 733.843801,248.016 733.675801,248.016 Z M743.395801,248.016 L741.955801,248.016 C741.787801,248.016 741.715801,247.92 741.787801,247.728 L750.331801,228.288 C750.403801,228.096 750.595801,228 750.787801,228 L752.203801,228 C752.395801,228 752.443801,228.096 752.347801,228.288 L743.803801,247.728 C743.731801,247.92 743.563801,248.016 743.395801,248.016 Z M753.115801,248.016 L751.675801,248.016 C751.507801,248.016 751.435801,247.92 751.507801,247.728 L760.051801,228.288 C760.123801,228.096 760.315801,228 760.507801,228 L761.923801,228 C762.115801,228 762.163801,228.096 762.067801,228.288 L753.523801,247.728 C753.451801,247.92 753.283801,248.016 753.115801,248.016 Z M762.835801,248.016 L761.395801,248.016 C761.227801,248.016 761.155801,247.92 761.227801,247.728 L769.771801,228.288 C769.843801,228.096 770.035801,228 770.227801,228 L771.643801,228 C771.835801,228 771.883801,228.096 771.787801,228.288 L763.243801,247.728 C763.171801,247.92 763.003801,248.016 762.835801,248.016 Z M772.555801,248.016 L771.115801,248.016 C770.947801,248.016 770.875801,247.92 770.947801,247.728 L779.491801,228.288 C779.563801,228.096 779.755801,228 779.947801,228 L781.363801,228 C781.555801,228 781.603801,228.096 781.507801,228.288 L772.963801,247.728 C772.891801,247.92 772.723801,248.016 772.555801,248.016 Z M782.275801,248.016 L780.835801,248.016 C780.667801,248.016 780.595801,247.92 780.667801,247.728 L789.211801,228.288 C789.283801,228.096 789.475801,228 789.667801,228 L791.083801,228 C791.275801,228 791.323801,228.096 791.227801,228.288 L782.683801,247.728 C782.611801,247.92 782.443801,248.016 782.275801,248.016 Z M791.995801,248.016 L790.555801,248.016 C790.387801,248.016 790.315801,247.92 790.387801,247.728 L798.931801,228.288 C799.003801,228.096 799.195801,228 799.387801,228 L800.803801,228 C800.995801,228 801.043801,228.096 800.947801,228.288 L792.403801,247.728 C792.331801,247.92 792.163801,248.016 791.995801,248.016 Z M801.715801,248.016 L800.275801,248.016 C800.107801,248.016 800.035801,247.92 800.107801,247.728 L808.651801,228.288 C808.723801,228.096 808.915801,228 809.107801,228 L810.523801,228 C810.715801,228 810.763801,228.096 810.667801,228.288 L802.123801,247.728 C802.051801,247.92 801.883801,248.016 801.715801,248.016 Z M811.435801,248.016 L809.995801,248.016 C809.827801,248.016 809.755801,247.92 809.827801,247.728 L818.371801,228.288 C818.443801,228.096 818.635801,228 818.827801,228 L820.243801,228 C820.435801,228 820.483801,228.096 820.387801,228.288 L811.843801,247.728 C811.771801,247.92 811.603801,248.016 811.435801,248.016 Z M821.155801,248.016 L819.715801,248.016 C819.547801,248.016 819.475801,247.92 819.547801,247.728 L828.091801,228.288 C828.163801,228.096 828.355801,228 828.547801,228 L829.963801,228 C830.155801,228 830.203801,228.096 830.107801,228.288 L821.563801,247.728 C821.491801,247.92 821.323801,248.016 821.155801,248.016 Z M830.875801,248.016 L829.435801,248.016 C829.267801,248.016 829.195801,247.92 829.267801,247.728 L837.811801,228.288 C837.883801,228.096 838.075801,228 838.267801,228 L839.683801,228 C839.875801,228 839.923801,228.096 839.827801,228.288 L831.283801,247.728 C831.211801,247.92 831.043801,248.016 830.875801,248.016 Z M840.595801,248.016 L839.155801,248.016 C838.987801,248.016 838.915801,247.92 838.987801,247.728 L847.531801,228.288 C847.603801,228.096 847.795801,228 847.987801,228 L849.403801,228 C849.595801,228 849.643801,228.096 849.547801,228.288 L841.003801,247.728 C840.931801,247.92 840.763801,248.016 840.595801,248.016 Z M850.315801,248.016 L848.875801,248.016 C848.707801,248.016 848.635801,247.92 848.707801,247.728 L857.251801,228.288 C857.323801,228.096 857.515801,228 857.707801,228 L859.123801,228 C859.315801,228 859.363801,228.096 859.267801,228.288 L850.723801,247.728 C850.651801,247.92 850.483801,248.016 850.315801,248.016 Z M860.035801,248.016 L858.595801,248.016 C858.427801,248.016 858.355801,247.92 858.427801,247.728 L866.971801,228.288 C867.043801,228.096 867.235801,228 867.427801,228 L868.843801,228 C869.035801,228 869.083801,228.096 868.987801,228.288 L860.443801,247.728 C860.371801,247.92 860.203801,248.016 860.035801,248.016 Z M869.755801,248.016 L868.315801,248.016 C868.147801,248.016 868.075801,247.92 868.147801,247.728 L876.691801,228.288 C876.763801,228.096 876.955801,228 877.147801,228 L878.563801,228 C878.755801,228 878.803801,228.096 878.707801,228.288 L870.163801,247.728 C870.091801,247.92 869.923801,248.016 869.755801,248.016 Z M879.475801,248.016 L878.035801,248.016 C877.867801,248.016 877.795801,247.92 877.867801,247.728 L886.411801,228.288 C886.483801,228.096 886.675801,228 886.867801,228 L888.283801,228 C888.475801,228 888.523801,228.096 888.427801,228.288 L879.883801,247.728 C879.811801,247.92 879.643801,248.016 879.475801,248.016 Z M889.195801,248.016 L887.755801,248.016 C887.587801,248.016 887.515801,247.92 887.587801,247.728 L896.131801,228.288 C896.203801,228.096 896.395801,228 896.587801,228 L898.003801,228 C898.195801,228 898.243801,228.096 898.147801,228.288 L889.603801,247.728 C889.531801,247.92 889.363801,248.016 889.195801,248.016 Z M898.915801,248.016 L897.475801,248.016 C897.307801,248.016 897.235801,247.92 897.307801,247.728 L905.851801,228.288 C905.923801,228.096 906.115801,228 906.307801,228 L907.723801,228 C907.915801,228 907.963801,228.096 907.867801,228.288 L899.323801,247.728 C899.251801,247.92 899.083801,248.016 898.915801,248.016 Z M908.635801,248.016 L907.195801,248.016 C907.027801,248.016 906.955801,247.92 907.027801,247.728 L915.571801,228.288 C915.643801,228.096 915.835801,228 916.027801,228 L917.443801,228 C917.635801,228 917.683801,228.096 917.587801,228.288 L909.043801,247.728 C908.971801,247.92 908.803801,248.016 908.635801,248.016 Z M918.355801,248.016 L916.915801,248.016 C916.747801,248.016 916.675801,247.92 916.747801,247.728 L925.291801,228.288 C925.363801,228.096 925.555801,228 925.747801,228 L927.163801,228 C927.355801,228 927.403801,228.096 927.307801,228.288 L918.763801,247.728 C918.691801,247.92 918.523801,248.016 918.355801,248.016 Z M928.075801,248.016 L926.635801,248.016 C926.467801,248.016 926.395801,247.92 926.467801,247.728 L935.011801,228.288 C935.083801,228.096 935.275801,228 935.467801,228 L936.883801,228 C937.075801,228 937.123801,228.096 937.027801,228.288 L928.483801,247.728 C928.411801,247.92 928.243801,248.016 928.075801,248.016 Z M937.795801,248.016 L936.355801,248.016 C936.187801,248.016 936.115801,247.92 936.187801,247.728 L944.731801,228.288 C944.803801,228.096 944.995801,228 945.187801,228 L946.603801,228 C946.795801,228 946.843801,228.096 946.747801,228.288 L938.203801,247.728 C938.131801,247.92 937.963801,248.016 937.795801,248.016 Z M947.515801,248.016 L946.075801,248.016 C945.907801,248.016 945.835801,247.92 945.907801,247.728 L954.451801,228.288 C954.523801,228.096 954.715801,228 954.907801,228 L956.323801,228 C956.515801,228 956.563801,228.096 956.467801,228.288 L947.923801,247.728 C947.851801,247.92 947.683801,248.016 947.515801,248.016 Z M957.235801,248.016 L955.795801,248.016 C955.627801,248.016 955.555801,247.92 955.627801,247.728 L964.171801,228.288 C964.243801,228.096 964.435801,228 964.627801,228 L966.043801,228 C966.235801,228 966.283801,228.096 966.187801,228.288 L957.643801,247.728 C957.571801,247.92 957.403801,248.016 957.235801,248.016 Z M966.955801,248.016 L965.515801,248.016 C965.347801,248.016 965.275801,247.92 965.347801,247.728 L973.891801,228.288 C973.963801,228.096 974.155801,228 974.347801,228 L975.763801,228 C975.955801,228 976.003801,228.096 975.907801,228.288 L967.363801,247.728 C967.291801,247.92 967.123801,248.016 966.955801,248.016 Z M976.675801,248.016 L975.235801,248.016 C975.067801,248.016 974.995801,247.92 975.067801,247.728 L983.611801,228.288 C983.683801,228.096 983.875801,228 984.067801,228 L985.483801,228 C985.675801,228 985.723801,228.096 985.627801,228.288 L977.083801,247.728 C977.011801,247.92 976.843801,248.016 976.675801,248.016 Z M986.395801,248.016 L984.955801,248.016 C984.787801,248.016 984.715801,247.92 984.787801,247.728 L993.331801,228.288 C993.403801,228.096 993.595801,228 993.787801,228 L995.203801,228 C995.395801,228 995.443801,228.096 995.347801,228.288 L986.803801,247.728 C986.731801,247.92 986.563801,248.016 986.395801,248.016 Z M996.115801,248.016 L994.675801,248.016 C994.507801,248.016 994.435801,247.92 994.507801,247.728 L1003.0518,228.288 C1003.1238,228.096 1003.3158,228 1003.5078,228 L1004.9238,228 C1005.1158,228 1005.1638,228.096 1005.0678,228.288 L996.523801,247.728 C996.451801,247.92 996.283801,248.016 996.115801,248.016 Z M1005.8358,248.016 L1004.3958,248.016 C1004.2278,248.016 1004.1558,247.92 1004.2278,247.728 L1012.7718,228.288 C1012.8438,228.096 1013.0358,228 1013.2278,228 L1014.6438,228 C1014.8358,228 1014.8838,228.096 1014.7878,228.288 L1006.2438,247.728 C1006.1718,247.92 1006.0038,248.016 1005.8358,248.016 Z M1015.5558,248.016 L1014.1158,248.016 C1013.9478,248.016 1013.8758,247.92 1013.9478,247.728 L1022.4918,228.288 C1022.5638,228.096 1022.7558,228 1022.9478,228 L1024.3638,228 C1024.5558,228 1024.6038,228.096 1024.5078,228.288 L1015.9638,247.728 C1015.8918,247.92 1015.7238,248.016 1015.5558,248.016 Z M1025.2758,248.016 L1023.8358,248.016 C1023.6678,248.016 1023.5958,247.92 1023.6678,247.728 L1032.2118,228.288 C1032.2838,228.096 1032.4758,228 1032.6678,228 L1034.0838,228 C1034.2758,228 1034.3238,228.096 1034.2278,228.288 L1025.6838,247.728 C1025.6118,247.92 1025.4438,248.016 1025.2758,248.016 Z M1034.9958,248.016 L1033.5558,248.016 C1033.3878,248.016 1033.3158,247.92 1033.3878,247.728 L1041.9318,228.288 C1042.0038,228.096 1042.1958,228 1042.3878,228 L1043.8038,228 C1043.9958,228 1044.0438,228.096 1043.9478,228.288 L1035.4038,247.728 C1035.3318,247.92 1035.1638,248.016 1034.9958,248.016 Z M1044.7158,248.016 L1043.2758,248.016 C1043.1078,248.016 1043.0358,247.92 1043.1078,247.728 L1051.6518,228.288 C1051.7238,228.096 1051.9158,228 1052.1078,228 L1053.5238,228 C1053.7158,228 1053.7638,228.096 1053.6678,228.288 L1045.1238,247.728 C1045.0518,247.92 1044.8838,248.016 1044.7158,248.016 Z M1054.4358,248.016 L1052.9958,248.016 C1052.8278,248.016 1052.7558,247.92 1052.8278,247.728 L1061.3718,228.288 C1061.4438,228.096 1061.6358,228 1061.8278,228 L1063.2438,228 C1063.4358,228 1063.4838,228.096 1063.3878,228.288 L1054.8438,247.728 C1054.7718,247.92 1054.6038,248.016 1054.4358,248.016 Z M1064.1558,248.016 L1062.7158,248.016 C1062.5478,248.016 1062.4758,247.92 1062.5478,247.728 L1071.0918,228.288 C1071.1638,228.096 1071.3558,228 1071.5478,228 L1072.9638,228 C1073.1558,228 1073.2038,228.096 1073.1078,228.288 L1064.5638,247.728 C1064.4918,247.92 1064.3238,248.016 1064.1558,248.016 Z M1073.8758,248.016 L1072.4358,248.016 C1072.2678,248.016 1072.1958,247.92 1072.2678,247.728 L1080.8118,228.288 C1080.8838,228.096 1081.0758,228 1081.2678,228 L1082.6838,228 C1082.8758,228 1082.9238,228.096 1082.8278,228.288 L1074.2838,247.728 C1074.2118,247.92 1074.0438,248.016 1073.8758,248.016 Z M1083.5958,248.016 L1082.1558,248.016 C1081.9878,248.016 1081.9158,247.92 1081.9878,247.728 L1090.5318,228.288 C1090.6038,228.096 1090.7958,228 1090.9878,228 L1092.4038,228 C1092.5958,228 1092.6438,228.096 1092.5478,228.288 L1084.0038,247.728 C1083.9318,247.92 1083.7638,248.016 1083.5958,248.016 Z M1093.3158,248.016 L1091.8758,248.016 C1091.7078,248.016 1091.6358,247.92 1091.7078,247.728 L1100.2518,228.288 C1100.3238,228.096 1100.5158,228 1100.7078,228 L1102.1238,228 C1102.3158,228 1102.3638,228.096 1102.2678,228.288 L1093.7238,247.728 C1093.6518,247.92 1093.4838,248.016 1093.3158,248.016 Z M1103.0358,248.016 L1101.5958,248.016 C1101.4278,248.016 1101.3558,247.92 1101.4278,247.728 L1109.9718,228.288 C1110.0438,228.096 1110.2358,228 1110.4278,228 L1111.8438,228 C1112.0358,228 1112.0838,228.096 1111.9878,228.288 L1103.4438,247.728 C1103.3718,247.92 1103.2038,248.016 1103.0358,248.016 Z M1112.7558,248.016 L1111.3158,248.016 C1111.1478,248.016 1111.0758,247.92 1111.1478,247.728 L1119.6918,228.288 C1119.7638,228.096 1119.9558,228 1120.1478,228 L1121.5638,228 C1121.7558,228 1121.8038,228.096 1121.7078,228.288 L1113.1638,247.728 C1113.0918,247.92 1112.9238,248.016 1112.7558,248.016 Z M1122.4758,248.016 L1121.0358,248.016 C1120.8678,248.016 1120.7958,247.92 1120.8678,247.728 L1129.4118,228.288 C1129.4838,228.096 1129.6758,228 1129.8678,228 L1131.2838,228 C1131.4758,228 1131.5238,228.096 1131.4278,228.288 L1122.8838,247.728 C1122.8118,247.92 1122.6438,248.016 1122.4758,248.016 Z M1132.1958,248.016 L1130.7558,248.016 C1130.5878,248.016 1130.5158,247.92 1130.5878,247.728 L1139.1318,228.288 C1139.2038,228.096 1139.3958,228 1139.5878,228 L1141.0038,228 C1141.1958,228 1141.2438,228.096 1141.1478,228.288 L1132.6038,247.728 C1132.5318,247.92 1132.3638,248.016 1132.1958,248.016 Z M1141.9158,248.016 L1140.4758,248.016 C1140.3078,248.016 1140.2358,247.92 1140.3078,247.728 L1148.8518,228.288 C1148.9238,228.096 1149.1158,228 1149.3078,228 L1150.7238,228 C1150.9158,228 1150.9638,228.096 1150.8678,228.288 L1142.3238,247.728 C1142.2518,247.92 1142.0838,248.016 1141.9158,248.016 Z M1151.6358,248.016 L1150.1958,248.016 C1150.0278,248.016 1149.9558,247.92 1150.0278,247.728 L1158.5718,228.288 C1158.6438,228.096 1158.8358,228 1159.0278,228 L1160.4438,228 C1160.6358,228 1160.6838,228.096 1160.5878,228.288 L1152.0438,247.728 C1151.9718,247.92 1151.8038,248.016 1151.6358,248.016 Z M1161.3558,248.016 L1159.9158,248.016 C1159.7478,248.016 1159.6758,247.92 1159.7478,247.728 L1168.2918,228.288 C1168.3638,228.096 1168.5558,228 1168.7478,228 L1170.1638,228 C1170.3558,228 1170.4038,228.096 1170.3078,228.288 L1161.7638,247.728 C1161.6918,247.92 1161.5238,248.016 1161.3558,248.016 Z M1171.0758,248.016 L1169.6358,248.016 C1169.4678,248.016 1169.3958,247.92 1169.4678,247.728 L1178.0118,228.288 C1178.0838,228.096 1178.2758,228 1178.4678,228 L1179.8838,228 C1180.0758,228 1180.1238,228.096 1180.0278,228.288 L1171.4838,247.728 C1171.4118,247.92 1171.2438,248.016 1171.0758,248.016 Z M1180.7958,248.016 L1179.3558,248.016 C1179.1878,248.016 1179.1158,247.92 1179.1878,247.728 L1187.7318,228.288 C1187.8038,228.096 1187.9958,228 1188.1878,228 L1189.6038,228 C1189.7958,228 1189.8438,228.096 1189.7478,228.288 L1181.2038,247.728 C1181.1318,247.92 1180.9638,248.016 1180.7958,248.016 Z M1190.5158,248.016 L1189.0758,248.016 C1188.9078,248.016 1188.8358,247.92 1188.9078,247.728 L1197.4518,228.288 C1197.5238,228.096 1197.7158,228 1197.9078,228 L1199.3238,228 C1199.5158,228 1199.5638,228.096 1199.4678,228.288 L1190.9238,247.728 C1190.8518,247.92 1190.6838,248.016 1190.5158,248.016 Z M1200.2358,248.016 L1198.7958,248.016 C1198.6278,248.016 1198.5558,247.92 1198.6278,247.728 L1207.1718,228.288 C1207.2438,228.096 1207.4358,228 1207.6278,228 L1209.0438,228 C1209.2358,228 1209.2838,228.096 1209.1878,228.288 L1200.6438,247.728 C1200.5718,247.92 1200.4038,248.016 1200.2358,248.016 Z M1209.9558,248.016 L1208.5158,248.016 C1208.3478,248.016 1208.2758,247.92 1208.3478,247.728 L1216.8918,228.288 C1216.9638,228.096 1217.1558,228 1217.3478,228 L1218.7638,228 C1218.9558,228 1219.0038,228.096 1218.9078,228.288 L1210.3638,247.728 C1210.2918,247.92 1210.1238,248.016 1209.9558,248.016 Z M1219.6758,248.016 L1218.2358,248.016 C1218.0678,248.016 1217.9958,247.92 1218.0678,247.728 L1226.6118,228.288 C1226.6838,228.096 1226.8758,228 1227.0678,228 L1228.4838,228 C1228.6758,228 1228.7238,228.096 1228.6278,228.288 L1220.0838,247.728 C1220.0118,247.92 1219.8438,248.016 1219.6758,248.016 Z M1229.3958,248.016 L1227.9558,248.016 C1227.7878,248.016 1227.7158,247.92 1227.7878,247.728 L1236.3318,228.288 C1236.4038,228.096 1236.5958,228 1236.7878,228 L1238.2038,228 C1238.3958,228 1238.4438,228.096 1238.3478,228.288 L1229.8038,247.728 C1229.7318,247.92 1229.5638,248.016 1229.3958,248.016 Z M1239.1158,248.016 L1237.6758,248.016 C1237.5078,248.016 1237.4358,247.92 1237.5078,247.728 L1246.0518,228.288 C1246.1238,228.096 1246.3158,228 1246.5078,228 L1247.9238,228 C1248.1158,228 1248.1638,228.096 1248.0678,228.288 L1239.5238,247.728 C1239.4518,247.92 1239.2838,248.016 1239.1158,248.016 Z M1248.8358,248.016 L1247.3958,248.016 C1247.2278,248.016 1247.1558,247.92 1247.2278,247.728 L1255.7718,228.288 C1255.8438,228.096 1256.0358,228 1256.2278,228 L1257.6438,228 C1257.8358,228 1257.8838,228.096 1257.7878,228.288 L1249.2438,247.728 C1249.1718,247.92 1249.0038,248.016 1248.8358,248.016 Z M1258.5558,248.016 L1257.1158,248.016 C1256.9478,248.016 1256.8758,247.92 1256.9478,247.728 L1265.4918,228.288 C1265.5638,228.096 1265.7558,228 1265.9478,228 L1267.3638,228 C1267.5558,228 1267.6038,228.096 1267.5078,228.288 L1258.9638,247.728 C1258.8918,247.92 1258.7238,248.016 1258.5558,248.016 Z M1268.2758,248.016 L1266.8358,248.016 C1266.6678,248.016 1266.5958,247.92 1266.6678,247.728 L1275.2118,228.288 C1275.2838,228.096 1275.4758,228 1275.6678,228 L1277.0838,228 C1277.2758,228 1277.3238,228.096 1277.2278,228.288 L1268.6838,247.728 C1268.6118,247.92 1268.4438,248.016 1268.2758,248.016 Z M1277.9958,248.016 L1276.5558,248.016 C1276.3878,248.016 1276.3158,247.92 1276.3878,247.728 L1284.9318,228.288 C1285.0038,228.096 1285.1958,228 1285.3878,228 L1286.8038,228 C1286.9958,228 1287.0438,228.096 1286.9478,228.288 L1278.4038,247.728 C1278.3318,247.92 1278.1638,248.016 1277.9958,248.016 Z M1287.7158,248.016 L1286.2758,248.016 C1286.1078,248.016 1286.0358,247.92 1286.1078,247.728 L1294.6518,228.288 C1294.7238,228.096 1294.9158,228 1295.1078,228 L1296.5238,228 C1296.7158,228 1296.7638,228.096 1296.6678,228.288 L1288.1238,247.728 C1288.0518,247.92 1287.8838,248.016 1287.7158,248.016 Z M1297.4358,248.016 L1295.9958,248.016 C1295.8278,248.016 1295.7558,247.92 1295.8278,247.728 L1304.3718,228.288 C1304.4438,228.096 1304.6358,228 1304.8278,228 L1306.2438,228 C1306.4358,228 1306.4838,228.096 1306.3878,228.288 L1297.8438,247.728 C1297.7718,247.92 1297.6038,248.016 1297.4358,248.016 Z M1307.1558,248.016 L1305.7158,248.016 C1305.5478,248.016 1305.4758,247.92 1305.5478,247.728 L1314.0918,228.288 C1314.1638,228.096 1314.3558,228 1314.5478,228 L1315.9638,228 C1316.1558,228 1316.2038,228.096 1316.1078,228.288 L1307.5638,247.728 C1307.4918,247.92 1307.3238,248.016 1307.1558,248.016 Z M1316.8758,248.016 L1315.4358,248.016 C1315.2678,248.016 1315.1958,247.92 1315.2678,247.728 L1323.8118,228.288 C1323.8838,228.096 1324.0758,228 1324.2678,228 L1325.6838,228 C1325.8758,228 1325.9238,228.096 1325.8278,228.288 L1317.2838,247.728 C1317.2118,247.92 1317.0438,248.016 1316.8758,248.016 Z M1326.5958,248.016 L1325.1558,248.016 C1324.9878,248.016 1324.9158,247.92 1324.9878,247.728 L1333.5318,228.288 C1333.6038,228.096 1333.7958,228 1333.9878,228 L1335.4038,228 C1335.5958,228 1335.6438,228.096 1335.5478,228.288 L1327.0038,247.728 C1326.9318,247.92 1326.7638,248.016 1326.5958,248.016 Z M1336.3158,248.016 L1334.8758,248.016 C1334.7078,248.016 1334.6358,247.92 1334.7078,247.728 L1343.2518,228.288 C1343.3238,228.096 1343.5158,228 1343.7078,228 L1345.1238,228 C1345.3158,228 1345.3638,228.096 1345.2678,228.288 L1336.7238,247.728 C1336.6518,247.92 1336.4838,248.016 1336.3158,248.016 Z M1346.0358,248.016 L1344.5958,248.016 C1344.4278,248.016 1344.3558,247.92 1344.4278,247.728 L1352.9718,228.288 C1353.0438,228.096 1353.2358,228 1353.4278,228 L1354.8438,228 C1355.0358,228 1355.0838,228.096 1354.9878,228.288 L1346.4438,247.728 C1346.3718,247.92 1346.2038,248.016 1346.0358,248.016 Z M1355.7558,248.016 L1354.3158,248.016 C1354.1478,248.016 1354.0758,247.92 1354.1478,247.728 L1362.6918,228.288 C1362.7638,228.096 1362.9558,228 1363.1478,228 L1364.5638,228 C1364.7558,228 1364.8038,228.096 1364.7078,228.288 L1356.1638,247.728 C1356.0918,247.92 1355.9238,248.016 1355.7558,248.016 Z M1365.4758,248.016 L1364.0358,248.016 C1363.8678,248.016 1363.7958,247.92 1363.8678,247.728 L1372.4118,228.288 C1372.4838,228.096 1372.6758,228 1372.8678,228 L1374.2838,228 C1374.4758,228 1374.5238,228.096 1374.4278,228.288 L1365.8838,247.728 C1365.8118,247.92 1365.6438,248.016 1365.4758,248.016 Z M1375.1958,248.016 L1373.7558,248.016 C1373.5878,248.016 1373.5158,247.92 1373.5878,247.728 L1382.1318,228.288 C1382.2038,228.096 1382.3958,228 1382.5878,228 L1384.0038,228 C1384.1958,228 1384.2438,228.096 1384.1478,228.288 L1375.6038,247.728 C1375.5318,247.92 1375.3638,248.016 1375.1958,248.016 Z M1384.9158,248.016 L1383.4758,248.016 C1383.3078,248.016 1383.2358,247.92 1383.3078,247.728 L1391.8518,228.288 C1391.9238,228.096 1392.1158,228 1392.3078,228 L1393.7238,228 C1393.9158,228 1393.9638,228.096 1393.8678,228.288 L1385.3238,247.728 C1385.2518,247.92 1385.0838,248.016 1384.9158,248.016 Z M1394.6358,248.016 L1393.1958,248.016 C1393.0278,248.016 1392.9558,247.92 1393.0278,247.728 L1401.5718,228.288 C1401.6438,228.096 1401.8358,228 1402.0278,228 L1403.4438,228 C1403.6358,228 1403.6838,228.096 1403.5878,228.288 L1395.0438,247.728 C1394.9718,247.92 1394.8038,248.016 1394.6358,248.016 Z M1404.3558,248.016 L1402.9158,248.016 C1402.7478,248.016 1402.6758,247.92 1402.7478,247.728 L1411.2918,228.288 C1411.3638,228.096 1411.5558,228 1411.7478,228 L1413.1638,228 C1413.3558,228 1413.4038,228.096 1413.3078,228.288 L1404.7638,247.728 C1404.6918,247.92 1404.5238,248.016 1404.3558,248.016 Z M1414.0758,248.016 L1412.6358,248.016 C1412.4678,248.016 1412.3958,247.92 1412.4678,247.728 L1421.0118,228.288 C1421.0838,228.096 1421.2758,228 1421.4678,228 L1422.8838,228 C1423.0758,228 1423.1238,228.096 1423.0278,228.288 L1414.4838,247.728 C1414.4118,247.92 1414.2438,248.016 1414.0758,248.016 Z M1423.7958,248.016 L1422.3558,248.016 C1422.1878,248.016 1422.1158,247.92 1422.1878,247.728 L1430.7318,228.288 C1430.8038,228.096 1430.9958,228 1431.1878,228 L1432.6038,228 C1432.7958,228 1432.8438,228.096 1432.7478,228.288 L1424.2038,247.728 C1424.1318,247.92 1423.9638,248.016 1423.7958,248.016 Z M1433.5158,248.016 L1432.0758,248.016 C1431.9078,248.016 1431.8358,247.92 1431.9078,247.728 L1440.4518,228.288 C1440.5238,228.096 1440.7158,228 1440.9078,228 L1442.3238,228 C1442.5158,228 1442.5638,228.096 1442.4678,228.288 L1433.9238,247.728 C1433.8518,247.92 1433.6838,248.016 1433.5158,248.016 Z M1443.2358,248.016 L1441.7958,248.016 C1441.6278,248.016 1441.5558,247.92 1441.6278,247.728 L1450.1718,228.288 C1450.2438,228.096 1450.4358,228 1450.6278,228 L1452.0438,228 C1452.2358,228 1452.2838,228.096 1452.1878,228.288 L1443.6438,247.728 C1443.5718,247.92 1443.4038,248.016 1443.2358,248.016 Z M1452.9558,248.016 L1451.5158,248.016 C1451.3478,248.016 1451.2758,247.92 1451.3478,247.728 L1459.8918,228.288 C1459.9638,228.096 1460.1558,228 1460.3478,228 L1461.7638,228 C1461.9558,228 1462.0038,228.096 1461.9078,228.288 L1453.3638,247.728 C1453.2918,247.92 1453.1238,248.016 1452.9558,248.016 Z M1462.6758,248.016 L1461.2358,248.016 C1461.0678,248.016 1460.9958,247.92 1461.0678,247.728 L1469.6118,228.288 C1469.6838,228.096 1469.8758,228 1470.0678,228 L1471.4838,228 C1471.6758,228 1471.7238,228.096 1471.6278,228.288 L1463.0838,247.728 C1463.0118,247.92 1462.8438,248.016 1462.6758,248.016 Z M1472.3958,248.016 L1470.9558,248.016 C1470.7878,248.016 1470.7158,247.92 1470.7878,247.728 L1479.3318,228.288 C1479.4038,228.096 1479.5958,228 1479.7878,228 L1481.2038,228 C1481.3958,228 1481.4438,228.096 1481.3478,228.288 L1472.8038,247.728 C1472.7318,247.92 1472.5638,248.016 1472.3958,248.016 Z M1482.1158,248.016 L1480.6758,248.016 C1480.5078,248.016 1480.4358,247.92 1480.5078,247.728 L1489.0518,228.288 C1489.1238,228.096 1489.3158,228 1489.5078,228 L1490.9238,228 C1491.1158,228 1491.1638,228.096 1491.0678,228.288 L1482.5238,247.728 C1482.4518,247.92 1482.2838,248.016 1482.1158,248.016 Z M1491.8358,248.016 L1490.3958,248.016 C1490.2278,248.016 1490.1558,247.92 1490.2278,247.728 L1498.7718,228.288 C1498.8438,228.096 1499.0358,228 1499.2278,228 L1500.6438,228 C1500.8358,228 1500.8838,228.096 1500.7878,228.288 L1492.2438,247.728 C1492.1718,247.92 1492.0038,248.016 1491.8358,248.016 Z M1501.5558,248.016 L1500.1158,248.016 C1499.9478,248.016 1499.8758,247.92 1499.9478,247.728 L1508.4918,228.288 C1508.5638,228.096 1508.7558,228 1508.9478,228 L1510.3638,228 C1510.5558,228 1510.6038,228.096 1510.5078,228.288 L1501.9638,247.728 C1501.8918,247.92 1501.7238,248.016 1501.5558,248.016 Z M1511.2758,248.016 L1509.8358,248.016 C1509.6678,248.016 1509.5958,247.92 1509.6678,247.728 L1518.2118,228.288 C1518.2838,228.096 1518.4758,228 1518.6678,228 L1520.0838,228 C1520.2758,228 1520.3238,228.096 1520.2278,228.288 L1511.6838,247.728 C1511.6118,247.92 1511.4438,248.016 1511.2758,248.016 Z M1520.9958,248.016 L1519.5558,248.016 C1519.3878,248.016 1519.3158,247.92 1519.3878,247.728 L1527.9318,228.288 C1528.0038,228.096 1528.1958,228 1528.3878,228 L1529.8038,228 C1529.9958,228 1530.0438,228.096 1529.9478,228.288 L1521.4038,247.728 C1521.3318,247.92 1521.1638,248.016 1520.9958,248.016 Z M1530.7158,248.016 L1529.2758,248.016 C1529.1078,248.016 1529.0358,247.92 1529.1078,247.728 L1537.6518,228.288 C1537.7238,228.096 1537.9158,228 1538.1078,228 L1539.5238,228 C1539.7158,228 1539.7638,228.096 1539.6678,228.288 L1531.1238,247.728 C1531.0518,247.92 1530.8838,248.016 1530.7158,248.016 Z M1540.4358,248.016 L1538.9958,248.016 C1538.8278,248.016 1538.7558,247.92 1538.8278,247.728 L1547.3718,228.288 C1547.4438,228.096 1547.6358,228 1547.8278,228 L1549.2438,228 C1549.4358,228 1549.4838,228.096 1549.3878,228.288 L1540.8438,247.728 C1540.7718,247.92 1540.6038,248.016 1540.4358,248.016 Z M1550.1558,248.016 L1548.7158,248.016 C1548.5478,248.016 1548.4758,247.92 1548.5478,247.728 L1557.0918,228.288 C1557.1638,228.096 1557.3558,228 1557.5478,228 L1558.9638,228 C1559.1558,228 1559.2038,228.096 1559.1078,228.288 L1550.5638,247.728 C1550.4918,247.92 1550.3238,248.016 1550.1558,248.016 Z M1559.8758,248.016 L1558.4358,248.016 C1558.2678,248.016 1558.1958,247.92 1558.2678,247.728 L1566.8118,228.288 C1566.8838,228.096 1567.0758,228 1567.2678,228 L1568.6838,228 C1568.8758,228 1568.9238,228.096 1568.8278,228.288 L1560.2838,247.728 C1560.2118,247.92 1560.0438,248.016 1559.8758,248.016 Z M1569.5958,248.016 L1568.1558,248.016 C1567.9878,248.016 1567.9158,247.92 1567.9878,247.728 L1576.5318,228.288 C1576.6038,228.096 1576.7958,228 1576.9878,228 L1578.4038,228 C1578.5958,228 1578.6438,228.096 1578.5478,228.288 L1570.0038,247.728 C1569.9318,247.92 1569.7638,248.016 1569.5958,248.016 Z M1579.3158,248.016 L1577.8758,248.016 C1577.7078,248.016 1577.6358,247.92 1577.7078,247.728 L1586.2518,228.288 C1586.3238,228.096 1586.5158,228 1586.7078,228 L1588.1238,228 C1588.3158,228 1588.3638,228.096 1588.2678,228.288 L1579.7238,247.728 C1579.6518,247.92 1579.4838,248.016 1579.3158,248.016 Z M1589.0358,248.016 L1587.5958,248.016 C1587.4278,248.016 1587.3558,247.92 1587.4278,247.728 L1595.9718,228.288 C1596.0438,228.096 1596.2358,228 1596.4278,228 L1597.8438,228 C1598.0358,228 1598.0838,228.096 1597.9878,228.288 L1589.4438,247.728 C1589.3718,247.92 1589.2038,248.016 1589.0358,248.016 Z M1598.7558,248.016 L1597.3158,248.016 C1597.1478,248.016 1597.0758,247.92 1597.1478,247.728 L1605.6918,228.288 C1605.7638,228.096 1605.9558,228 1606.1478,228 L1607.5638,228 C1607.7558,228 1607.8038,228.096 1607.7078,228.288 L1599.1638,247.728 C1599.0918,247.92 1598.9238,248.016 1598.7558,248.016 Z M1608.4758,248.016 L1607.0358,248.016 C1606.8678,248.016 1606.7958,247.92 1606.8678,247.728 L1615.4118,228.288 C1615.4838,228.096 1615.6758,228 1615.8678,228 L1617.2838,228 C1617.4758,228 1617.5238,228.096 1617.4278,228.288 L1608.8838,247.728 C1608.8118,247.92 1608.6438,248.016 1608.4758,248.016 Z M1618.1958,248.016 L1616.7558,248.016 C1616.5878,248.016 1616.5158,247.92 1616.5878,247.728 L1625.1318,228.288 C1625.2038,228.096 1625.3958,228 1625.5878,228 L1627.0038,228 C1627.1958,228 1627.2438,228.096 1627.1478,228.288 L1618.6038,247.728 C1618.5318,247.92 1618.3638,248.016 1618.1958,248.016 Z M1627.9158,248.016 L1626.4758,248.016 C1626.3078,248.016 1626.2358,247.92 1626.3078,247.728 L1634.8518,228.288 C1634.9238,228.096 1635.1158,228 1635.3078,228 L1636.7238,228 C1636.9158,228 1636.9638,228.096 1636.8678,228.288 L1628.3238,247.728 C1628.2518,247.92 1628.0838,248.016 1627.9158,248.016 Z M1637.6358,248.016 L1636.1958,248.016 C1636.0278,248.016 1635.9558,247.92 1636.0278,247.728 L1644.5718,228.288 C1644.6438,228.096 1644.8358,228 1645.0278,228 L1646.4438,228 C1646.6358,228 1646.6838,228.096 1646.5878,228.288 L1638.0438,247.728 C1637.9718,247.92 1637.8038,248.016 1637.6358,248.016 Z M1647.3558,248.016 L1645.9158,248.016 C1645.7478,248.016 1645.6758,247.92 1645.7478,247.728 L1654.2918,228.288 C1654.3638,228.096 1654.5558,228 1654.7478,228 L1656.1638,228 C1656.3558,228 1656.4038,228.096 1656.3078,228.288 L1647.7638,247.728 C1647.6918,247.92 1647.5238,248.016 1647.3558,248.016 Z M1657.0758,248.016 L1655.6358,248.016 C1655.4678,248.016 1655.3958,247.92 1655.4678,247.728 L1664.0118,228.288 C1664.0838,228.096 1664.2758,228 1664.4678,228 L1665.8838,228 C1666.0758,228 1666.1238,228.096 1666.0278,228.288 L1657.4838,247.728 C1657.4118,247.92 1657.2438,248.016 1657.0758,248.016 Z M1666.7958,248.016 L1665.3558,248.016 C1665.1878,248.016 1665.1158,247.92 1665.1878,247.728 L1673.7318,228.288 C1673.8038,228.096 1673.9958,228 1674.1878,228 L1675.6038,228 C1675.7958,228 1675.8438,228.096 1675.7478,228.288 L1667.2038,247.728 C1667.1318,247.92 1666.9638,248.016 1666.7958,248.016 Z M1676.5158,248.016 L1675.0758,248.016 C1674.9078,248.016 1674.8358,247.92 1674.9078,247.728 L1683.4518,228.288 C1683.5238,228.096 1683.7158,228 1683.9078,228 L1685.3238,228 C1685.5158,228 1685.5638,228.096 1685.4678,228.288 L1676.9238,247.728 C1676.8518,247.92 1676.6838,248.016 1676.5158,248.016 Z M1686.2358,248.016 L1684.7958,248.016 C1684.6278,248.016 1684.5558,247.92 1684.6278,247.728 L1693.1718,228.288 C1693.2438,228.096 1693.4358,228 1693.6278,228 L1695.0438,228 C1695.2358,228 1695.2838,228.096 1695.1878,228.288 L1686.6438,247.728 C1686.5718,247.92 1686.4038,248.016 1686.2358,248.016 Z M1695.9558,248.016 L1694.5158,248.016 C1694.3478,248.016 1694.2758,247.92 1694.3478,247.728 L1702.8918,228.288 C1702.9638,228.096 1703.1558,228 1703.3478,228 L1704.7638,228 C1704.9558,228 1705.0038,228.096 1704.9078,228.288 L1696.3638,247.728 C1696.2918,247.92 1696.1238,248.016 1695.9558,248.016 Z M1705.6758,248.016 L1704.2358,248.016 C1704.0678,248.016 1703.9958,247.92 1704.0678,247.728 L1712.6118,228.288 C1712.6838,228.096 1712.8758,228 1713.0678,228 L1714.4838,228 C1714.6758,228 1714.7238,228.096 1714.6278,228.288 L1706.0838,247.728 C1706.0118,247.92 1705.8438,248.016 1705.6758,248.016 Z M1715.3958,248.016 L1713.9558,248.016 C1713.7878,248.016 1713.7158,247.92 1713.7878,247.728 L1722.3318,228.288 C1722.4038,228.096 1722.5958,228 1722.7878,228 L1724.2038,228 C1724.3958,228 1724.4438,228.096 1724.3478,228.288 L1715.8038,247.728 C1715.7318,247.92 1715.5638,248.016 1715.3958,248.016 Z M1725.1158,248.016 L1723.6758,248.016 C1723.5078,248.016 1723.4358,247.92 1723.5078,247.728 L1732.0518,228.288 C1732.1238,228.096 1732.3158,228 1732.5078,228 L1733.9238,228 C1734.1158,228 1734.1638,228.096 1734.0678,228.288 L1725.5238,247.728 C1725.4518,247.92 1725.2838,248.016 1725.1158,248.016 Z" id="slash-progress-bar"></path>
        </g>
    </g>
</svg>